<svg xmlns="http://www.w3.org/2000/svg" width="1280" viewBox="0 0 960 600" height="800" version="1.0"><defs><clipPath id="25fce706b9"><path d="M0 198.102h480.305V600H0Zm0 0"/></clipPath><clipPath id="e5fccf07a4"><path d="M522.938 377.984h128.238v30.75H522.937Zm0 0"/></clipPath><clipPath id="c739f11bab"><path d="M538.156 377.984h97.637c8.402 0 15.215 6.813 15.215 15.22 0 8.401-6.813 15.214-15.215 15.214h-97.637c-8.406 0-15.218-6.813-15.218-15.215 0-8.406 6.812-15.219 15.218-15.219Zm0 0"/></clipPath><clipPath id="f761b936cc"><path d="M670.105 377.984H798.34v30.75H670.105Zm0 0"/></clipPath><clipPath id="82fe09b702"><path d="M685.32 377.984h97.637c8.406 0 15.219 6.813 15.219 15.22 0 8.401-6.813 15.214-15.219 15.214H685.32c-8.402 0-15.215-6.813-15.215-15.215 0-8.406 6.813-15.219 15.215-15.219Zm0 0"/></clipPath></defs><path fill="#f7ba20" d="M-109.867 555.219Zm402.355-128.77-19.21 27.457-10.301-34.445c-19.59-61.399-58.516-71.57-58.645-71.57l-66.02-32.16s-56.605 6.484-82.937 23.39h-.129s-124.281 63.813-151.883 100.55c-27.605 36.61-13.23 115.548-13.23 115.548s99.73-15.254 125.297-31.399L2.582 500.05l25.695-17.667C17.847 551.789 8.562 620.176 8.562 620.176s97.95 42.586 206.965-7.754l4.832-21.102.258 3.688s34.98 30.379 67.164 25.93c32.184-4.45 50.5-73.727 50.5-73.727Zm0 0"/><path fill="#409780" d="M434.832 306.578v120.89a13.676 13.676 0 0 1-13.738 13.727c-7.633 0-13.739-6.101-13.992-15.379v-120.89c4.578 2.797 9.156 3.558 13.992 3.558 4.832 0 9.414-.761 13.738-1.906ZM281.93 318.02c-5.598 0-10.176 4.578-10.176 10.168v.89c0 5.594 4.578 10.172 10.176 10.172 5.597 0 10.175-4.578 10.175-10.172v-.89c.13-5.59-4.453-10.168-10.175-10.168Zm26.84-91.524c-4.707-2.543-10.176-3.941-16.665-3.941-8.14 0-17.808.761-24.421 5.976-2.293 1.778-4.075 4.45-4.582 7.246-.508 2.922.636 6.102 2.925 7.88a10.355 10.355 0 0 0 3.692 1.527c5.851 1.27 11.703-1.91 17.68-1.91 2.8 0 5.214.511 7.378 1.527 2.036 1.015 3.688 2.414 4.832 4.32 1.145 1.91 1.782 4.195 1.782 6.867 0 4.32-1.145 8.133-3.434 11.313-2.289 3.176-5.344 6.738-9.285 11.058-2.29 2.414-4.324 4.957-6.36 7.63-3.69 4.956-5.851 9.53-4.964 15.632.257 1.527.636 3.18 1.402 4.324.254.38.508.633.89.887 1.145 1.02 2.798 1.273 4.325 1.398 3.816.254 7.887-.761 10.305-3.683 1.906-2.29 2.414-5.469 3.433-8.137 3.563-9.281 12.594-15.762 18.445-23.644 2.16-3.051 3.942-6.227 5.215-9.532 1.274-3.308 1.907-6.867 1.907-10.808 0-5.719-1.27-10.805-3.817-15.38-2.414-4.448-5.976-8.007-10.683-10.55Zm0 0"/><path fill="#e78022" d="M219.469 256.621c.89 24.152-1.399 51.356-26.457 52.629-1.528 10.55-3.434 25.168 0 32.922 12.086 27.71-49.102 5.976-57.242-21.738l14.628-28.602c-3.562-5.973-5.726-13.344-7.125-21.734-.636-4.07-.636-7.883 0-11.567-.636-1.656-1.015-3.308-.89-4.832.383-4.578 2.672-7.375 6.488-8.137 7.379-9.785 20.606-15.89 35.746-17.542 16.41-1.524 33.961 5.214 34.852 28.601ZM41.637 623.988c-.254-4.32-1.02-8.898-2.035-13.726-6.106-26.567-17.43-59.11-28.114-84.278-20.097 10.04-66.02 19.45-95.152 24.786 10.05 21.23 25.059 45.636 46.812 73.601-19.336-1.906-46.683-2.922-50.753 6.23-2.547 5.59 3.687 8.899 3.687 8.899s-9.414-.766-10.812 7.242c-1.016 6.23 7.125 9.664 7.125 9.664s-7.125.38-8.778 8.262c-1.781 8.77 10.938 10.297 10.938 10.297s-9.793.254-9.922 9.914c-.254 17.922 53.172 11.82 100.75 3.812 47.574-7.879 36.379-64.703 36.379-64.703Zm231.64-170.082 1.657-2.414a80.15 80.15 0 0 1-1.657 2.414Zm173.512-85.422c0-5.593-4.453-10.043-10.05-10.043 5.597 0 10.05-4.449 10.05-10.039 0-5.593-4.453-10.043-10.05-10.043h-1.782c-1.016-2.414-2.668-4.957-4.703-7.12 0-.509-12.086-13.22-23.152-11.692-14.25 1.906-13.485 2.797-26.207 8.262-13.356 5.593-28.875 34.32-28.875 34.32s-26.715 25.426-59.024 65.848l39.942 105.507c3.562-8.898 7.378-18.687 11.449-29.875 9.16-25.043 27.476-56.312 35.238-69.277 4.832-7.883 11.957-13.984 18.7-18.434 1.78 1.653 4.195 2.797 6.866 2.797h31.422c5.598 0 10.047-4.449 10.047-10.043 0-5.464-4.45-10.039-10.047-10.039 5.469 0 10.047-4.449 10.047-10.043 0-5.593-4.45-10.043-10.047-10.043 5.723 0 10.176-4.449 10.176-10.043Zm0 0"/><path fill="#6090f2" d="M472.23 257.387c0 28.218-22.898 51.097-51.136 51.097-28.242 0-51.137-22.879-51.137-51.097 0-28.223 22.895-51.102 51.137-51.102 28.238 0 51.136 22.88 51.136 51.102Zm0 0"/><g clip-path="url('#25fce706b9')"><path d="M480.371 257.387c0-32.672-26.586-59.239-59.277-59.239-32.692 0-59.278 26.567-59.278 59.239 0 27.457 18.825 50.718 44.395 57.328v4.066c-5.852.254-19.211 3.434-29.512 10.297-11.703 7.883-24.172 30.383-25.316 32.543-2.29 2.16-30.656 30.125-57.88 64.574v-.125c-.124-.382-.378-.507-.76-.636-.384 0-.638.128-.891.382l-18.063 25.805-9.797-32.543c-17.933-60.762-65.004-76.144-70.219-77.668-3.05-7.5-1.27-21.101.13-31.273 25.187-1.907 27.476-29.489 26.585-53.516-.129-2.668-.383-5.082-.89-7.371 3.054-.383 6.105-2.797 8.27-6.61 3.179-5.468 4.577-13.855.636-20.464-4.453-7.375-8.652-6.867-14.375-6.23-6.234.761-14.629 1.652-28.879-5.34-5.723-2.797-13.48-2.29-21.367 1.527-13.36 6.48-23.406 20.082-26.969 36.48-5.98 27.711 9.414 42.84 11.574 44.875l-10.812 21.227c-5.598.637-57.496 7.5-82.43 23.39-.125 0-.125.125-.254.125-.254.13-31.547 16.274-65.64 36.61-45.918 27.332-75.051 48.941-86.625 64.195-27.606 36.61-13.614 115.55-13.485 116.313.125.507.508.761.89.761h.126c1.273-.254 11.324-1.78 25.441-4.32 10.688 22.242 25.824 46.27 45.285 71.438-29.511-2.797-46.175-.38-49.609 6.992-1.652 3.687-.125 6.61 1.781 8.515-3.687.508-8.14 2.543-9.031 8.008-.762 4.703 2.926 7.883 5.469 9.406-2.414.891-5.852 3.051-6.996 8.391-.508 2.29-.125 4.324 1.144 6.102 1.656 2.289 4.324 3.558 6.617 4.324-3.054 1.144-6.617 3.937-6.742 10.039 0 2.672 1.016 5.086 3.18 6.867 3.308 2.797 9.668 5.719 27.223 5.719 14.628 0 36.89-2.035 71.617-7.754 12.847-2.16 22.64-8.008 29.129-17.414 9.668-13.985 9.668-32.035 8.906-41.695 17.555 3.433 38.926 6.738 63.094 6.738 32.183 0 69.453-5.723 109.144-24.028.254-.125.38-.378.508-.632l4.707-16.145c6.36 5.086 37.781 29.238 66.781 25.168 13.739-1.906 26.461-15 38.035-39.023 8.524-17.797 13.23-35.211 13.23-35.34v-.637l-4.96-13.219a1357.008 1357.008 0 0 0 11.32-29.492c9.16-25.168 27.73-56.691 35.239-69.148 5.085-8.266 13.23-14.621 17.808-17.797 1.906 1.523 4.324 2.543 6.996 2.543h1.016v7.879c0 8.136 6.617 14.746 14.758 14.746 8.14 0 14.757-6.61 14.757-14.746v-7.88h1.016c6.106 0 10.942-4.96 10.942-10.933 0-4.449-2.672-8.261-6.489-10.043 3.817-1.652 6.488-5.593 6.488-10.043 0-4.449-2.671-8.261-6.488-10.039 3.817-1.652 6.488-5.594 6.488-10.043 0-4.449-2.671-8.261-6.488-10.043 3.817-1.652 6.488-5.593 6.488-10.043 0-6.101-4.96-10.93-10.94-10.93h-1.017v-22.882c25.313-6.485 44.266-29.746 44.266-57.328Zm-327.047-10.043c1.016-1.145 2.035-1.653 3.18-1.528 1.527.13 2.543.637 3.434 1.653 1.527 1.781 2.289 5.215 1.91 9.664v.633l7.12 4.07-.382-2.035c-.125-.508-2.414-12.457 10.559-17.797 6.234-2.668 12.34-.254 19.464 2.414 5.47 2.164 11.703 4.578 19.082 4.832.508 2.29.891 4.703 1.016 7.371.89 23.52-1.398 50.594-25.95 51.61h-3.944c-.762 0-1.524 0-2.29-.126h-.761c-1.02 0-1.91-.128-2.926-.253h-.129c-.89-.13-1.906-.254-2.797-.383h-.383c-11.957-2.035-21.496-8.008-27.859-17.414l-.125-.254c1.781-4.832 4.578-13.856 3.941-21.356v-.507l-.379-.254c-.128-.13-3.437-2.036-4.582-7.63-.89-3.433.13-9.66 2.801-12.71Zm-2.289 45.254c8.012 10.93 20.098 16.906 35.363 17.668h5.469c-1.398 10.55-3.18 24.535.254 32.289 1.274 2.922 2.418 6.863.508 9.152-1.145 1.398-3.305 2.16-6.36 2.285a29.57 29.57 0 0 1-6.234-.633c-14.883-2.925-38.414-16.78-43.375-32.796Zm-260.012 261.476c-1.527-8.898-12.21-80.082 13.23-113.894 11.192-14.875 40.958-36.993 85.99-63.813 34.093-20.34 65.257-36.355 65.64-36.484 7.758-4.957 15.644-7.371 23.277-7.371 4.2 0 8.27.761 12.469 2.16 10.812 3.812 20.86 12.71 29 25.55 5.219 8.137 6.363 18.56 3.562 29.872-5.468 22.246-25.058 45.383-51.261 60.508L2.074 499.289c-.383.254-.508.762-.254 1.27l12.465 22.753a39.943 39.943 0 0 1-3.433 1.907c-17.809 8.773-56.227 17.289-83.45 22.5-.379.129-.761.129-1.27.254-.253 0-.51.129-.765.129-17.043 3.175-30.656 5.34-34.344 5.972ZM16.32 523.313l-12.593-22.88 23.28-16.019c-2.671 17.672-5.472 36.738-8.398 56.95-1.906-5.087-3.941-10.044-5.976-14.872a42.18 42.18 0 0 0 3.433-1.906c.383-.383.508-.89.254-1.274ZM-94.602 669.495c-.89-1.398-1.273-2.797-.89-4.574 1.398-6.992 7.633-7.5 7.887-7.5.378 0 25.566-1.399 36.253 0l.254-1.906c-10.558-1.399-33.71-.13-36.382 0-1.145-.508-7.122-3.559-6.36-8.52 1.02-5.973 7.125-6.48 9.16-6.48h.762c.254 0 19.973-.891 33.328 2.16l.383-1.906c-12.723-2.926-31.168-2.29-33.582-2.29-1.02-.636-4.961-3.304-3.055-7.5 2.926-6.48 20.48-8.515 49.485-5.718 5.086 5.34 11.066 7.246 14.882 7.879-7.632 3.816-13.867 10.933-18.191 21.101-3.05 7.246-4.324 13.73-4.707 15.89h-.89c-22.641 0-37.524 3.306-39.305 3.813-.89-.125-6.618-1.144-9.032-4.449Zm127.715 1.781c-6.234 8.899-15.648 14.493-27.86 16.524-36 5.976-85.226 12.84-97.187 2.543-1.777-1.524-2.543-3.305-2.543-5.465.13-8.645 8.653-9.027 9.032-9.027h.254c.129 0 15.902-3.938 40.707-3.813.507 0 .89-.379.89-.89 0-.254 4.2-30.633 25.442-37.754.507-.125.765-.633.636-1.016-.129-.508-.507-.89-1.02-.762-.124 0-10.046.383-17.679-7.883-19.844-25.422-35.363-49.703-46.176-72.199 24.551-4.45 59.914-11.695 82.555-19.832.766-.254 1.527-.508 2.293-.89.125 0 .125 0 .254-.125.762-.254 1.398-.512 2.035-.766h.125c2.164-.887 4.07-1.652 5.98-2.54h.13c2.796 6.61 5.468 13.473 8.14 20.466.125.379.254.761.379 1.144 7.379 19.574 13.738 39.785 17.938 56.692 0 .129.128.382.128.511.38 1.524.762 2.922 1.016 4.446 1.02 4.449 1.652 8.773 2.035 12.968v.633c0 .258.13.383.254.512.766 3.812 4.453 28.98-7.758 46.523Zm304.153-124.066c-1.403 4.832-19.465 68.644-49.614 72.71-29.511 4.067-61.82-21.862-66.02-25.296 2.036-8.262 24.427-104.488-6.359-226.266l-1.91.508c31.93 126.352 6.489 224.996 6.235 225.887l-4.961 17.031c-69.2 31.781-130.77 25.043-171.219 16.906-.129-1.777-.383-3.05-.512-3.812-.125-.508-.125-.89-.125-.89 0-.126-.129-.255-.254-.38-.382-4.324-1.02-8.773-2.035-13.347-.383-1.399-.637-2.926-1.02-4.45 0-.128-.124-.382-.124-.507-4.2-17.035-10.559-37.117-18.192-57.457l-.383-1.145c-.253-.508-.382-1.015-.636-1.527 3.18-21.989 6.234-42.836 9.16-61.903h-.129l44.906-30.89c26.586-15.254 46.43-38.899 52.028-61.653 2.925-11.949 1.652-22.753-3.817-31.398-8.394-13.219-18.828-22.371-30.02-26.312-5.726-2.036-11.578-2.668-17.43-1.907 23.915-8.77 54.063-13.093 61.696-14.11l-1.527 3.177-.254.507.129.383c.125.254.125.508.254.762.125.254.125.512.254.766 3.308 9.023 11.703 17.16 20.988 23.132.89.637 1.91 1.145 2.926 1.782.254.125.512.254.765.508.762.382 1.524.761 2.16 1.144.891.508 1.782.89 2.547 1.27.254.128.38.128.633.253 1.145.512 2.164 1.02 3.309 1.528.89.379 1.781.762 2.543 1.015.383.13.637.254 1.02.383.507.125 1.015.38 1.527.508.761.254 1.523.508 2.16.637.254 0 .383.125.637.125l3.054.762c.762.128 1.524.257 2.29.382h.507c.762.13 1.399.13 2.035.13h2.418c.637 0 1.145-.13 1.653-.13h.254c.382-.125.89-.125 1.273-.254.129 0 .254-.128.383-.128.508-.125.89-.38 1.27-.508 0 0 .128 0 .128-.125.383-.13.637-.383 1.016-.637.129-.125.129-.125.258-.254.254-.254.632-.508.886-.89.258-.254.383-.637.637-.891 0-.125.129-.254.129-.254.125-.254.254-.508.254-.762 0-.125.129-.254.129-.383.125-.253.125-.507.125-.761v-1.778c0-.254 0-.636-.125-.89v-.508c0-.383-.13-.766-.258-1.145 0-.129 0-.254-.125-.254-.129-.507-.254-1.02-.508-1.527 9.285 3.05 50.883 19.832 67.547 76.016l10.3 34.449c.13.383.384.637.766.637.38.125.762-.13.891-.383l18.188-25.93 40.836 107.668Zm41.722-113.387c-7.504 12.457-26.078 44.235-35.363 69.531-3.563 9.66-6.996 18.942-10.43 27.586l-38.925-102.71c27.984-35.465 57.242-64.196 58.515-65.465l.125-.254c.13-.254 13.102-24.153 24.805-32.035 10.558-7.118 24.426-10.043 29.387-10.043 5.214 0 8.394 1.02 18.191 7.753 3.812 2.543 6.996 6.36 8.648 10.043v.13c.13.253.254.378.254.636 0 .125.13.254.13.379.124.254.253.508.253.762.125.254.125.511.254.636 0 .13.125.254.125.383.129.254.129.633.129.89v.126c0 .383.129.637.129 1.015v1.145c0 .254 0 .508-.13.637v.254c0 .129-.128.382-.128.507 0 .13-.125.254-.125.383 0 .125-.129.254-.254.38-.129.128-.129.257-.254.382l-.254.254c-.129.129-.257.254-.257.254-.125.129-.125.129-.254.254a1.727 1.727 0 0 1-.508.383c-.13.128-.254.128-.383.253-.125.13-.379.13-.508.254-.129 0-.254.13-.383.13-.125 0-.379.124-.507.124-.125 0-.254 0-.383.13-.254 0-.38.124-.633.124h-.258c-.379 0-.762.13-1.144.13-11.575.253-20.86-11.188-20.86-11.313-.254-.13-.512-.254-.765-.254-.508 0-.891.379-.891.761-.125 1.016-1.781 10.043-7.25 18.051 0 0-3.18 5.211-12.34 10.297l.89 1.652c3.946-2.164 6.743-4.324 8.778-6.101a10.827 10.827 0 0 0-2.035 6.355c0 4.45 2.672 8.262 6.488 10.043-3.816 1.653-6.488 5.59-6.488 10.04 0 4.449 2.672 8.265 6.488 10.042-3.816 1.653-6.488 5.594-6.488 10.043 0 2.668 1.02 5.211 2.672 7.117-4.832 3.18-12.977 9.536-18.063 17.926Zm29.13-115.168v-3.558c4.198.886 8.523 1.398 12.976 1.398 4.453 0 8.648-.512 12.847-1.398v19.191c-1.91-2.793-4.453-5.59-7.503-7.625-9.668-6.484-13.231-7.754-18.32-8.008Zm-7.25 39.785c-.638.254-1.274.637-1.907 1.02.508-.637.89-1.02 1.144-1.399.38.125.633.38.762.38Zm33.073 68.899c0 6.992-5.722 12.84-12.847 12.84-6.996 0-12.848-5.723-12.848-12.84v-7.88h25.567v7.88Zm11.957-18.813c0 4.957-4.07 9.024-9.03 9.024h-31.423c-4.96 0-9.03-4.067-9.03-9.024 0-4.957 4.07-9.027 9.03-9.027h31.422c4.961 0 9.031 4.07 9.031 9.027Zm0-19.957c0 4.957-4.07 9.024-9.03 9.024h-31.423c-4.96 0-9.03-4.067-9.03-9.024 0-4.957 4.07-9.027 9.03-9.027h31.422c4.961-.125 9.031 3.941 9.031 9.027Zm0-20.086c0 4.957-4.07 9.028-9.03 9.028h-31.423c-4.96 0-9.03-4.07-9.03-9.028 0-4.957 4.07-9.023 9.03-9.023h31.422c4.961 0 9.031 4.066 9.031 9.023Zm-9.921-20.593c0-.125.128-.125.128-.254 0 0 0-.125.125-.125.13-.254.254-.383.383-.637 0 0 0-.125.125-.125.13-.258.258-.637.258-.89v-.13c.125-.253.125-.632.125-.89v-2.16c0-.38-.125-.633-.125-1.016v-.129c-.129-.762-.383-1.523-.637-2.414h.38c4.96 0 9.03 4.067 9.03 9.027 0 4.957-4.07 9.024-9.03 9.024H405.32c-1.398 0-2.8-.383-4.07-1.016 4.07-6.23 5.852-12.969 6.613-16.144 2.164 2.414 6.996 6.992 13.356 9.152.258.125.383.125.636.254.383.125.637.254 1.02.254.379.129.762.129 1.016.254.254 0 .511.129.765.129.637.125 1.27.254 2.035.254.508 0 1.145.125 1.782.125h.632c.383 0 .766 0 1.149-.125h.379c.383 0 .765-.13 1.02-.254h.124c.383-.13.637-.254.891-.254.129 0 .129-.13.254-.13.258-.128.383-.253.637-.253 0 0 .128-.129.253-.129.258-.125.383-.254.637-.379.13-.129.254-.129.254-.254l.254-.254c.383.254.766-.129 1.02-.511Zm-14.883-40.676c-27.477 0-49.867-22.371-49.867-49.828 0-27.457 22.39-49.832 49.867-49.832 27.476 0 49.863 22.375 49.863 49.832s-22.387 49.828-49.863 49.828Zm-227.32-42.711c1.273 0 2.292 1.398 2.163 2.922 0 1.652-1.019 2.926-2.289 2.926-1.273 0-2.289-1.399-2.164-2.926.13-1.524 1.02-2.922 2.29-2.922Zm16.156 3.18c0 1.652-1.016 2.921-2.29 2.921-1.273 0-2.288-1.398-2.163-2.921.128-1.528 1.02-2.926 2.289-2.926 1.273 0 2.164 1.398 2.164 2.926Zm-9.922 14.488c-.762 0-1.528-.125-1.906-.125l.253-1.906c1.399.254 2.926.125 3.18-.13v-.124c-.637-2.418-1.398-10.809-1.527-11.188l1.906-.129c0 .13.766 8.645 1.402 10.805.254.766 0 1.398-.382 1.906-.508.766-1.782.89-2.926.89Zm2.672 10.933-1.274 1.399c-2.414-2.035-6.996-5.211-9.285-4.957l-.254-1.906c3.817-.383 10.176 4.957 10.813 5.464Zm-16.54-30.636-1.015-1.524c.637-.382 5.723-3.941 9.16-3.812v1.906c-2.418-.129-6.617 2.414-8.144 3.43Zm19.083-3.305-.125-1.906c3.304-.254 8.648 3.05 9.285 3.433l-1.02 1.653c-1.398-.89-5.851-3.305-8.14-3.18Zm228.336-20.719 1.273 1.399-44.648 40.804-1.274-1.398Zm-.38 18.43 1.27 1.398-25.82 23.645-1.274-1.398Zm18.825-17.16 1.273 1.398-9.543 8.774-1.27-1.399Zm0 0"/></g><g clip-path="url('#e5fccf07a4')"><g clip-path="url('#c739f11bab')"><path fill="none" d="M538.156 377.984h97.637c8.402 0 15.215 6.813 15.215 15.22 0 8.401-6.813 15.214-15.215 15.214h-97.637c-8.406 0-15.219-6.813-15.219-15.215 0-8.406 6.813-15.219 15.22-15.219Zm0 0" stroke="#000" stroke-width="3"/></g></g><path d="M574.17 388.66v4.113h-4.692v-4.113h-1.058v8.945h1.058v-3.949h4.692v3.95h1.074v-8.946ZM581.718 388.547c-2.363 0-4.023 1.558-4.023 4.586 0 3.015 1.66 4.586 4.023 4.586 2.352 0 4.027-1.57 4.027-4.586 0-3.028-1.675-4.586-4.027-4.586Zm0 8.226c-1.75 0-2.926-1.199-2.926-3.64 0-2.453 1.176-3.653 2.926-3.653 1.75 0 2.914 1.2 2.914 3.653 0 2.441-1.164 3.64-2.914 3.64ZM588.195 388.66v8.945h1.059v-6.976h.039l3.027 6.976h.871l3.016-6.976h.04v6.976h1.07v-8.945h-1.188l-3.371 7.59-3.387-7.59ZM601.02 396.66v-3.219h4.101v-.87h-4.101v-2.977h4.742v-.934h-5.801v8.945h5.93v-.945Zm0 0"/><g clip-path="url('#f761b936cc')"><g clip-path="url('#82fe09b702')"><path fill="none" d="M685.32 377.984h97.637c8.406 0 15.219 6.813 15.219 15.22 0 8.401-6.813 15.214-15.219 15.214H685.32c-8.402 0-15.215-6.813-15.215-15.215 0-8.406 6.813-15.219 15.215-15.219Zm0 0" stroke="#000" stroke-width="3"/></g></g><path d="m533.685 290.914-3.035-.606c-2.621-.511-3.77-1.789-3.77-3.613 0-1.883 1.438-3.836 4.984-3.836 3.356 0 4.825 1.633 5.211 3.676h2.715c-.449-3.61-3.164-5.941-7.926-5.941-5.015 0-7.734 2.652-7.734 6.039 0 3.355 2.27 5.082 6.008 5.847l3.262.641c2.394.477 4.25 1.437 4.25 3.992 0 2.399-1.887 4.156-5.528 4.156-3.804 0-5.273-2.14-5.691-4.539h-2.746c.383 3.965 3.097 6.809 8.437 6.809 5.114 0 8.274-2.461 8.274-6.395 0-3.8-2.492-5.367-6.711-6.23ZM550.527 286.473c-3.645 0-7.703 2.62-7.703 8.468 0 5.91 4.058 8.532 7.703 8.532 3.64 0 7.73-2.622 7.73-8.532 0-5.847-4.09-8.468-7.73-8.468Zm5.238 8.468c0 4.41-2.555 6.39-5.238 6.39-2.688 0-5.242-1.98-5.242-6.39 0-4.379 2.554-6.328 5.242-6.328 2.683 0 5.238 1.95 5.238 6.328ZM569.377 286.473c-3.196 0-5.145 1.949-5.688 4.187v-4.027h-2.554v16.617h2.554v-9.715c.543-2.91 2.492-4.762 5.88-4.762.226 0 .51 0 .991.032v-2.27c-.48-.062-.832-.062-1.183-.062ZM581.519 286.473c-3.195 0-5.145 1.949-5.688 4.187v-4.027h-2.554v16.617h2.554v-9.715c.543-2.91 2.493-4.762 5.88-4.762.226 0 .511 0 .991.032v-2.27c-.48-.062-.832-.062-1.183-.062ZM597.337 286.633l-5.242 13.675-5.145-13.675h-2.652l6.328 15.816c.254.64.222.992-.13 1.918-.734 1.856-2.01 3.004-4.41 2.688v2.234c3.165.383 5.145-.957 6.712-4.824l7.16-17.832ZM602.256 307.883c1.566-.032 3.066-.766 3.066-3.832v-4.059h-3.066v3.258h1.246v.992c0 1.531-.29 2.332-1.246 2.777ZM622.995 301.363c-1.246 0-1.664-.512-1.664-1.406v-11.281h3.23v-2.043h-3.23v-4.157h-2.554v4.157h-2.559v2.043h2.559v11.539c0 2.586 1.53 3.226 3.449 3.226.96 0 1.887-.129 2.59-.383v-1.949a6.562 6.562 0 0 1-1.82.254ZM636.157 286.473c-3.578 0-5.558 2.812-5.91 4.027v-9.813h-2.555v22.563h2.555v-10.29c.32-1.566 1.918-4.316 5.082-4.316 2.523 0 4.184 1.153 4.184 4.637v9.969h2.558v-10.067c0-5.05-2.59-6.71-5.914-6.71ZM660.093 295.07c0-5.945-3.422-8.597-7.414-8.597-3.93 0-7.734 2.652-7.734 8.5 0 5.816 3.644 8.5 7.765 8.5 3.325 0 5.497-1.18 6.81-3.93h-2.368c-.988 1.406-2.238 1.95-4.313 1.95-3.004 0-5.113-1.696-5.402-5.626h12.625c.031-.285.031-.543.031-.797Zm-12.656-.96c.29-3.837 2.461-5.657 5.242-5.657 2.906 0 4.887 1.95 4.953 5.656ZM679.84 286.473c-2.528 0-4.602 1.246-5.594 3.293v-3.133h-2.555v22.687h2.555v-9.394c.832 1.98 2.715 3.547 5.527 3.547 3.547 0 7.414-2.586 7.414-8.532 0-5.879-3.867-8.468-7.347-8.468Zm-.48 14.859c-2.75 0-5.243-2.078-5.243-6.39 0-4.442 2.492-6.329 5.242-6.329 2.782 0 5.336 1.887 5.336 6.328 0 4.442-2.554 6.39-5.336 6.39ZM703.39 300.375V292.8c0-4.602-2.142-6.328-6.552-6.328-3.836 0-6.168 1.468-6.52 4.44h2.43c.286-1.597 1.532-2.491 4.059-2.491 2.617 0 4.023.894 4.023 3.77v.226c-1.148.605-3.707.926-5.687 1.215-3.867.605-5.848 1.949-5.848 4.886 0 3.293 2.332 4.954 5.434 4.954 4.058 0 5.879-2.747 6.328-3.641v1.18c0 1.726.926 2.367 2.492 2.367.446 0 .703-.031 1.055-.192v-1.566c-.895.031-1.215-.352-1.215-1.246Zm-2.56-2.43c-.414.863-2.109 3.61-5.527 3.61-2.203 0-3.453-1.247-3.453-3.098 0-1.758.898-2.719 3.613-3.164 2.203-.383 4.41-.735 5.367-1.246ZM719.3 286.601v3.13c-1.023-2.012-3.097-3.258-5.594-3.258-3.48 0-7.316 2.59-7.316 8.468 0 5.91 3.805 8.5 7.352 8.5 2.843 0 4.726-1.629 5.558-3.547v3.258c0 3.645-2.043 4.989-5.304 4.989-2.333 0-4.028-.864-4.985-2.11l-1.664 1.055c1.121 1.98 3.742 3.195 6.871 3.195 3.39 0 7.64-1.344 7.64-7.129v-16.55Zm-5.113 14.7c-2.781 0-5.274-1.95-5.274-6.36s2.493-6.36 5.274-6.36c2.75 0 5.242 1.919 5.242 6.36 0 4.313-2.492 6.36-5.242 6.36ZM739.88 295.07c0-5.945-3.422-8.597-7.415-8.597-3.93 0-7.734 2.652-7.734 8.5 0 5.816 3.644 8.5 7.766 8.5 3.324 0 5.496-1.18 6.808-3.93h-2.367c-.988 1.406-2.238 1.95-4.313 1.95-3.003 0-5.113-1.696-5.402-5.626h12.625c.031-.285.031-.543.031-.797Zm-12.657-.96c.29-3.837 2.461-5.657 5.242-5.657 2.907 0 4.887 1.95 4.953 5.656ZM763.395 286.633l-5.242 13.675-5.144-13.675h-2.653l6.328 15.816c.254.64.223.992-.128 1.918-.735 1.856-2.012 3.004-4.41 2.688v2.234c3.163.383 5.144-.957 6.71-4.824l7.16-17.832ZM775.474 286.473c-3.644 0-7.703 2.62-7.703 8.468 0 5.91 4.059 8.532 7.703 8.532 3.641 0 7.731-2.622 7.731-8.532 0-5.847-4.09-8.468-7.73-8.468Zm5.239 8.468c0 4.41-2.555 6.39-5.239 6.39-2.687 0-5.242-1.98-5.242-6.39 0-4.379 2.555-6.328 5.242-6.328 2.684 0 5.239 1.95 5.239 6.328ZM797.746 286.633v10.32c-.351 1.566-1.949 4.348-5.082 4.348-2.527 0-4.187-1.184-4.187-4.664v-10.004h-2.555v10.066c0 5.082 2.586 6.774 5.91 6.774 3.578 0 5.563-2.875 5.914-4.09v3.867h2.555v-16.617ZM803.398 280.879h2.43v7.797h-2.43ZM817.203 286.473c-3.196 0-5.145 1.949-5.688 4.187v-4.027h-2.555v16.617h2.555v-9.715c.543-2.91 2.492-4.762 5.88-4.762.226 0 .51 0 .991.032v-2.27c-.48-.062-.832-.062-1.183-.062ZM835.45 295.07c0-5.945-3.422-8.597-7.414-8.597-3.93 0-7.734 2.652-7.734 8.5 0 5.816 3.644 8.5 7.765 8.5 3.325 0 5.496-1.18 6.809-3.93h-2.367c-.988 1.406-2.238 1.95-4.313 1.95-3.004 0-5.113-1.696-5.402-5.626h12.625c.031-.285.031-.543.031-.797Zm-12.656-.96c.289-3.837 2.46-5.657 5.242-5.657 2.906 0 4.887 1.95 4.953 5.656ZM524.165 324.64v22.562h2.555V324.64ZM537.298 330.425c-3.644 0-7.703 2.62-7.703 8.468 0 5.91 4.059 8.532 7.703 8.532 3.641 0 7.73-2.621 7.73-8.532 0-5.847-4.089-8.468-7.73-8.468Zm5.239 8.468c0 4.41-2.555 6.391-5.239 6.391-2.687 0-5.242-1.98-5.242-6.39 0-4.38 2.555-6.329 5.242-6.329 2.684 0 5.239 1.95 5.239 6.328ZM554.809 330.425c-3.645 0-7.704 2.62-7.704 8.468 0 5.91 4.059 8.532 7.704 8.532 3.64 0 7.73-2.621 7.73-8.532 0-5.847-4.09-8.468-7.73-8.468Zm5.238 8.468c0 4.41-2.555 6.391-5.238 6.391-2.688 0-5.243-1.98-5.243-6.39 0-4.38 2.555-6.329 5.243-6.329 2.683 0 5.238 1.95 5.238 6.328ZM577.463 347.202h2.906l-8.02-9.426 6.997-7.191h-3.004l-8.371 8.691V324.64h-2.555v22.562h2.555v-4.922l2.75-2.844ZM582.639 324.546v2.363h2.555v-2.363Zm0 6.039v16.617h2.555v-16.617ZM597.334 330.425c-3.578 0-5.558 2.812-5.91 4.027v-3.867h-2.554v16.617h2.554v-10.289c.32-1.566 1.918-4.316 5.082-4.316 2.524 0 4.184 1.152 4.184 4.636v9.969h2.559v-10.066c0-5.051-2.59-6.711-5.915-6.711ZM619.032 330.554v3.129c-1.023-2.012-3.097-3.258-5.593-3.258-3.48 0-7.317 2.59-7.317 8.468 0 5.91 3.805 8.5 7.352 8.5 2.843 0 4.726-1.628 5.558-3.546v3.257c0 3.645-2.043 4.989-5.304 4.989-2.332 0-4.028-.864-4.985-2.11l-1.664 1.055c1.121 1.98 3.742 3.195 6.871 3.195 3.39 0 7.64-1.343 7.64-7.129v-16.55Zm-5.113 14.699c-2.781 0-5.273-1.95-5.273-6.36s2.492-6.359 5.273-6.359c2.75 0 5.242 1.918 5.242 6.36 0 4.312-2.492 6.359-5.242 6.359ZM639.96 326.366c.672 0 1.441.094 1.918.223v-1.918c-.606-.223-1.598-.352-2.43-.352-2.106 0-4.375.61-4.375 4.54v1.726h-2.3v2.043h2.3v14.574h2.555v-14.574h4.058v-2.043h-4.058v-1.695c0-1.883.734-2.524 2.332-2.524ZM651.274 330.425c-3.645 0-7.703 2.62-7.703 8.468 0 5.91 4.058 8.532 7.703 8.532 3.64 0 7.73-2.621 7.73-8.532 0-5.847-4.09-8.468-7.73-8.468Zm5.238 8.468c0 4.41-2.554 6.391-5.238 6.391-2.688 0-5.242-1.98-5.242-6.39 0-4.38 2.554-6.329 5.242-6.329 2.684 0 5.238 1.95 5.238 6.328ZM670.124 330.425c-3.195 0-5.145 1.949-5.688 4.187v-4.027h-2.554v16.617h2.554v-9.715c.543-2.91 2.493-4.762 5.88-4.762.226 0 .511 0 .992.032v-2.27c-.48-.062-.832-.062-1.184-.062ZM689.298 330.425c-3.516 0-7.352 2.59-7.352 8.468 0 5.946 3.836 8.532 7.414 8.532 2.813 0 4.7-1.66 5.528-3.578v3.355h2.558V324.64h-2.558v9.043c-.989-2.012-3.067-3.258-5.59-3.258Zm.445 14.86c-2.781 0-5.305-1.981-5.305-6.392 0-4.41 2.524-6.328 5.305-6.328 2.75 0 5.273 1.887 5.273 6.328 0 4.313-2.523 6.391-5.273 6.391ZM708.054 330.425c-3.644 0-7.703 2.62-7.703 8.468 0 5.91 4.059 8.532 7.703 8.532 3.64 0 7.73-2.621 7.73-8.532 0-5.847-4.09-8.468-7.73-8.468Zm5.238 8.468c0 4.41-2.554 6.391-5.238 6.391-2.687 0-5.242-1.98-5.242-6.39 0-4.38 2.555-6.329 5.242-6.329 2.684 0 5.238 1.95 5.238 6.328ZM733.01 339.022c0-5.945-3.422-8.597-7.415-8.597-3.93 0-7.734 2.652-7.734 8.5 0 5.816 3.645 8.5 7.766 8.5 3.324 0 5.496-1.18 6.808-3.93h-2.367c-.988 1.406-2.238 1.95-4.312 1.95-3.004 0-5.114-1.696-5.403-5.626h12.625c.032-.285.032-.543.032-.797Zm-12.657-.96c.29-3.837 2.461-5.657 5.242-5.657 2.907 0 4.887 1.95 4.954 5.656ZM745.756 334.835h2.367c-.672-2.875-3.004-4.41-6.457-4.41-3.739 0-6.168 1.726-6.168 4.539 0 2.332 1.504 3.672 4.57 4.41l2.91.668c1.852.45 2.938.898 2.938 2.558 0 1.918-1.82 2.813-4.09 2.813-2.172 0-4.028-.766-4.504-3.07h-2.399c.415 3.515 3.196 5.082 6.872 5.082 3.515 0 6.68-1.407 6.68-4.793 0-3.067-1.919-3.707-4.985-4.41l-2.688-.637c-2.043-.48-2.875-1.215-2.875-2.559 0-1.5 1.344-2.62 3.739-2.62 2.078 0 3.515.702 4.09 2.429ZM759.687 330.425c-3.579 0-5.559 2.812-5.91 4.027v-3.867h-2.555v16.617h2.554v-10.289c.32-1.566 1.918-4.316 5.082-4.316 2.524 0 4.184 1.152 4.184 4.636v9.969h2.559v-10.066c0-5.051-2.59-6.711-5.914-6.711ZM768.697 324.831h2.43v7.797h-2.43ZM779.756 345.315c-1.246 0-1.664-.511-1.664-1.406v-11.281h3.23v-2.043h-3.23v-4.156h-2.555v4.156h-2.559v2.043h2.56v11.539c0 2.586 1.53 3.226 3.448 3.226.961 0 1.887-.128 2.59-.382v-1.95a6.562 6.562 0 0 1-1.82.254ZM807.523 339.022c0-5.945-3.421-8.597-7.414-8.597-3.93 0-7.734 2.652-7.734 8.5 0 5.816 3.645 8.5 7.766 8.5 3.324 0 5.496-1.18 6.808-3.93h-2.367c-.988 1.406-2.238 1.95-4.312 1.95-3.004 0-5.114-1.696-5.403-5.626h12.625c.031-.285.031-.543.031-.797Zm-12.656-.96c.29-3.837 2.461-5.657 5.242-5.657 2.907 0 4.887 1.95 4.954 5.656ZM824.457 347.202l-6.102-8.566 5.75-8.051h-2.843l-4.313 6.137-4.347-6.137h-2.844l5.785 8.05-6.106 8.567h2.844l4.668-6.68 4.633 6.68ZM827.174 324.546v2.363h2.554v-2.363Zm0 6.039v16.617h2.554v-16.617ZM843.275 334.835h2.368c-.672-2.875-3.004-4.41-6.457-4.41-3.739 0-6.168 1.726-6.168 4.539 0 2.332 1.504 3.672 4.57 4.41l2.91.668c1.852.45 2.938.898 2.938 2.558 0 1.918-1.82 2.813-4.09 2.813-2.172 0-4.028-.766-4.504-3.07h-2.399c.415 3.515 3.196 5.082 6.872 5.082 3.515 0 6.68-1.407 6.68-4.793 0-3.067-1.919-3.707-4.985-4.41l-2.688-.637c-2.043-.48-2.875-1.215-2.875-2.559 0-1.5 1.344-2.62 3.739-2.62 2.078 0 3.515.702 4.09 2.429ZM854.238 345.315c-1.246 0-1.664-.511-1.664-1.406v-11.281h3.23v-2.043h-3.23v-4.156h-2.555v4.156h-2.559v2.043h2.56v11.539c0 2.586 1.53 3.226 3.448 3.226.961 0 1.887-.128 2.59-.382v-1.95a6.562 6.562 0 0 1-1.82.254ZM706.192 396.773c-1.66 0-2.848-1.21-2.848-3.64 0-2.442 1.188-3.653 2.848-3.653 1.266 0 2.008.547 2.34 1.442h1.086c-.332-1.531-1.7-2.375-3.438-2.375-2.262 0-3.933 1.52-3.933 4.586 0 3.054 1.671 4.586 3.933 4.586 1.75 0 3.133-.856 3.465-2.387h-1.074c-.344.895-1.098 1.441-2.38 1.441ZM715.775 388.547c-2.364 0-4.024 1.558-4.024 4.586 0 3.015 1.66 4.586 4.024 4.586 2.351 0 4.027-1.57 4.027-4.586 0-3.028-1.676-4.586-4.027-4.586Zm0 8.226c-1.75 0-2.926-1.199-2.926-3.64 0-2.453 1.176-3.653 2.926-3.653 1.75 0 2.914 1.2 2.914 3.653 0 2.441-1.164 3.64-2.914 3.64ZM729.24 388.66h-1.074v7.309h-.023l-4.73-7.309h-1.161v8.945h1.059v-7.27h.039l4.691 7.27h1.2ZM738.197 388.66h-6.695v.934h2.808v8.011h1.074v-8.011h2.813ZM746.985 397.605h1.148l-3.562-8.945h-.934l-3.55 8.945h1.148l.867-2.289h4.016Zm-4.574-3.105 1.699-4.46 1.7 4.46ZM754.15 396.773c-1.66 0-2.848-1.21-2.848-3.64 0-2.442 1.187-3.653 2.847-3.653 1.266 0 2.008.547 2.34 1.442h1.086c-.332-1.531-1.699-2.375-3.437-2.375-2.262 0-3.934 1.52-3.934 4.586 0 3.054 1.672 4.586 3.934 4.586 1.75 0 3.133-.856 3.465-2.387h-1.075c-.343.895-1.097 1.441-2.379 1.441ZM766.213 388.66h-6.696v.934h2.809v8.011h1.074v-8.011h2.813ZM587.526 238.314v-13.402h-9.164V176.92H561.64l-34.707 47.992v13.402h34.707V257.1h16.723v-18.785Zm-25.887-13.402h-20.16l20.16-27.832Zm0 0"/><path d="M614.211 175.892c-15.578 0-32.414 10.766-32.414 41.118 0 30.468 16.836 41.12 32.414 41.12 15.81 0 32.415-10.652 32.415-41.12 0-30.352-16.606-41.118-32.415-41.118Zm15.692 41.118c0 13.976-3.434 26.804-15.692 26.804-12.253 0-15.69-12.828-15.69-26.804 0-13.86 3.437-26.801 15.69-26.801 12.258 0 15.692 12.941 15.692 26.8Zm0 0"/><path d="M701.491 238.314v-13.402h-9.164V176.92h-16.722l-34.707 47.992v13.402h34.707V257.1h16.722v-18.785Zm-25.886-13.402h-20.16l20.16-27.832Zm0 0"/><path d="M94.903 112.104h7.214L90.238 81.307h-6.027L72.29 112.104h7.258l1.98-5.762h11.395Zm-11.704-10.692 4.004-11.789 4.047 11.79Zm0 0" fill="#0e133f"/><path d="M115.797 89.006c-4.222 0-6.687 3.168-7.347 4.75v-4.531h-6.422v22.879h6.422V98.596c.219-1.45 1.762-4.266 4.972-4.266 2.286 0 4.09 1.188 4.09 4.356v13.418h6.422v-13.77c0-6.953-3.43-9.328-8.137-9.328Zm0 0" fill="#0e133f"/><path d="M137.882 96.31h5.762c-.746-4.355-3.653-7.304-9.723-7.304-5.851 0-9.328 2.55-9.328 6.82 0 3.122 1.805 5.41 6.996 6.555l3.695.793c1.715.352 2.422.879 2.422 2.067 0 1.406-1.144 2.417-3.699 2.417-2.375 0-3.781-.921-4.266-2.859h-5.894c.66 5.063 4.266 7.613 10.117 7.613 5.809 0 10.164-2.246 10.164-7.082 0-4.754-2.95-5.324-7.039-6.25l-4.094-.922c-1.582-.351-2.418-1.011-2.418-2.156 0-1.453 1.364-2.246 3.387-2.246 2.113 0 3.387.66 3.918 2.555Zm0 0" fill="#0e133f"/><path d="M157.809 89.006c-4.223 0-6.688 3.168-7.348 4.75v-12.71h-6.422v31.058h6.422V98.596c.219-1.45 1.762-4.266 4.973-4.266 2.285 0 4.09 1.188 4.09 4.356v13.418h6.422v-13.77c0-6.953-3.43-9.328-8.137-9.328ZM182.444 89.225v13.55c-.219 1.454-1.715 4.313-4.93 4.313-2.332 0-4.132-1.23-4.132-4.398V89.225h-6.426v13.816c0 6.95 3.476 9.371 8.14 9.371 4.266 0 6.688-3.21 7.348-4.796v4.488h6.422v-22.88ZM209.278 95.166c2.023-.925 3.828-3.035 3.828-5.894 0-4.754-3.387-7.965-10.293-7.965h-12.715v30.797h13.195c8.055 0 11.836-3.477 11.836-9.153 0-3.472-2.242-6.687-5.851-7.785Zm-12.45-8.316h6.07c1.587 0 3.169.879 3.169 3.082 0 1.8-1.145 3.387-3.344 3.387h-5.895Zm6.246 19.71h-6.246v-8.14h6.465c3.653 0 4.621 2.332 4.621 4.227 0 2.066-1.277 3.914-4.84 3.914ZM215.92 80.912v4.883h6.423v-4.883Zm0 8.313v22.879h6.423v-22.88Zm0 0" fill="#0e133f"/><path d="M234.485 107.397c-1.848 0-2.465-.926-2.465-2.332V94.24h4.621v-5.016h-4.62v-5.719h-6.423v5.719h-3.785v5.016h3.785v11.527c0 5.5 3.121 6.601 7.082 6.601 1.715 0 3.211-.265 4.18-.66v-4.62c-.969.218-1.715.308-2.375.308Zm0 0" fill="#0e133f"/><path d="M258.109 101.502c0-9.238-5.234-12.496-10.91-12.496-5.281 0-11.309 3.258-11.309 11.79 0 8.405 6.07 11.616 11.262 11.616 5.543 0 9.02-2.246 10.34-6.863h-5.586c-.66 1.32-1.98 2.11-4.403 2.11-3.12 0-4.925-1.45-5.41-4.97h15.973c.043-.398.043-.75.043-1.187Zm-15.973-2.773c.485-3.344 2.246-4.973 5.063-4.973 3.035 0 4.707 1.98 4.793 4.973Zm0 0" fill="#0e133f"/><path d="M270.954 96.31h5.762c-.746-4.355-3.652-7.304-9.723-7.304-5.851 0-9.328 2.55-9.328 6.82 0 3.122 1.805 5.41 6.996 6.555l3.696.793c1.714.352 2.421.879 2.421 2.067 0 1.406-1.144 2.417-3.699 2.417-2.375 0-3.781-.921-4.265-2.859h-5.895c.66 5.063 4.266 7.613 10.117 7.613 5.809 0 10.164-2.246 10.164-7.082 0-4.754-2.949-5.324-7.039-6.25l-4.093-.922c-1.583-.351-2.418-1.011-2.418-2.156 0-1.453 1.363-2.246 3.386-2.246 2.114 0 3.387.66 3.918 2.555Zm0 0" fill="#0e133f"/></svg>