<svg xmlns="http://www.w3.org/2000/svg" xmlns:xlink="http://www.w3.org/1999/xlink" width="1280" zoomAndPan="magnify" viewBox="0 0 960 599.999999" height="800" preserveAspectRatio="xMidYMid meet" version="1.0"><defs><g/><clipPath id="25fce706b9"><path d="M 0 198.101562 L 480.304688 198.101562 L 480.304688 600 L 0 600 Z M 0 198.101562 " clip-rule="nonzero"/></clipPath><clipPath id="e5fccf07a4"><path d="M 522.9375 377.984375 L 651.175781 377.984375 L 651.175781 408.734375 L 522.9375 408.734375 Z M 522.9375 377.984375 " clip-rule="nonzero"/></clipPath><clipPath id="c739f11bab"><path d="M 538.15625 377.984375 L 635.792969 377.984375 C 644.195312 377.984375 651.007812 384.796875 651.007812 393.203125 C 651.007812 401.605469 644.195312 408.417969 635.792969 408.417969 L 538.15625 408.417969 C 529.75 408.417969 522.9375 401.605469 522.9375 393.203125 C 522.9375 384.796875 529.75 377.984375 538.15625 377.984375 Z M 538.15625 377.984375 " clip-rule="nonzero"/></clipPath><clipPath id="f761b936cc"><path d="M 670.105469 377.984375 L 798.339844 377.984375 L 798.339844 408.734375 L 670.105469 408.734375 Z M 670.105469 377.984375 " clip-rule="nonzero"/></clipPath><clipPath id="82fe09b702"><path d="M 685.320312 377.984375 L 782.957031 377.984375 C 791.363281 377.984375 798.175781 384.796875 798.175781 393.203125 C 798.175781 401.605469 791.363281 408.417969 782.957031 408.417969 L 685.320312 408.417969 C 676.917969 408.417969 670.105469 401.605469 670.105469 393.203125 C 670.105469 384.796875 676.917969 377.984375 685.320312 377.984375 Z M 685.320312 377.984375 " clip-rule="nonzero"/></clipPath></defs><path fill="#f7ba20" d="M -109.867188 555.21875 Z M 292.488281 426.449219 L 273.277344 453.90625 L 262.976562 419.460938 C 243.386719 358.0625 204.460938 347.890625 204.332031 347.890625 L 138.3125 315.730469 C 138.3125 315.730469 81.707031 322.214844 55.375 339.121094 C 55.375 339.121094 55.375 339.121094 55.246094 339.121094 C 55.246094 339.121094 -69.035156 402.933594 -96.636719 439.671875 C -124.242188 476.28125 -109.867188 555.21875 -109.867188 555.21875 C -109.867188 555.21875 -10.136719 539.964844 15.429688 523.820312 L 2.582031 500.050781 L 28.277344 482.382812 C 17.847656 551.789062 8.5625 620.175781 8.5625 620.175781 C 8.5625 620.175781 106.511719 662.761719 215.527344 612.421875 L 220.359375 591.320312 L 220.617188 595.007812 C 220.617188 595.007812 255.597656 625.386719 287.78125 620.9375 C 319.964844 616.488281 338.28125 547.210938 338.28125 547.210938 Z M 292.488281 426.449219 " fill-opacity="1" fill-rule="nonzero"/><path fill="#409780" d="M 434.832031 306.578125 L 434.832031 427.46875 C 434.832031 435.09375 428.726562 441.195312 421.09375 441.195312 C 413.460938 441.195312 407.355469 435.09375 407.101562 425.816406 L 407.101562 304.925781 C 411.679688 307.722656 416.257812 308.484375 421.09375 308.484375 C 425.925781 308.484375 430.507812 307.722656 434.832031 306.578125 Z M 281.929688 318.019531 C 276.332031 318.019531 271.753906 322.597656 271.753906 328.1875 L 271.753906 329.078125 C 271.753906 334.671875 276.332031 339.25 281.929688 339.25 C 287.527344 339.25 292.105469 334.671875 292.105469 329.078125 L 292.105469 328.1875 C 292.234375 322.597656 287.652344 318.019531 281.929688 318.019531 Z M 308.769531 226.496094 C 304.0625 223.953125 298.59375 222.554688 292.105469 222.554688 C 283.964844 222.554688 274.296875 223.316406 267.683594 228.53125 C 265.390625 230.308594 263.609375 232.980469 263.101562 235.777344 C 262.59375 238.699219 263.738281 241.878906 266.027344 243.65625 C 267.171875 244.417969 268.445312 244.929688 269.71875 245.183594 C 275.570312 246.453125 281.421875 243.273438 287.398438 243.273438 C 290.199219 243.273438 292.613281 243.785156 294.777344 244.800781 C 296.8125 245.816406 298.464844 247.214844 299.609375 249.121094 C 300.753906 251.03125 301.390625 253.316406 301.390625 255.988281 C 301.390625 260.308594 300.246094 264.121094 297.957031 267.300781 C 295.667969 270.476562 292.613281 274.039062 288.671875 278.359375 C 286.382812 280.773438 284.347656 283.316406 282.3125 285.988281 C 278.621094 290.945312 276.460938 295.519531 277.347656 301.621094 C 277.605469 303.148438 277.984375 304.800781 278.75 305.945312 C 279.003906 306.324219 279.257812 306.578125 279.640625 306.832031 C 280.785156 307.851562 282.4375 308.105469 283.964844 308.230469 C 287.78125 308.484375 291.851562 307.46875 294.269531 304.546875 C 296.175781 302.257812 296.683594 299.078125 297.703125 296.410156 C 301.265625 287.128906 310.296875 280.648438 316.148438 272.765625 C 318.308594 269.714844 320.089844 266.539062 321.363281 263.234375 C 322.636719 259.925781 323.269531 256.367188 323.269531 252.425781 C 323.269531 246.707031 322 241.621094 319.453125 237.046875 C 317.039062 232.597656 313.476562 229.039062 308.769531 226.496094 Z M 308.769531 226.496094 " fill-opacity="1" fill-rule="nonzero"/><path fill="#e78022" d="M 219.46875 256.621094 C 220.359375 280.773438 218.070312 307.976562 193.011719 309.25 C 191.484375 319.800781 189.578125 334.417969 193.011719 342.171875 C 205.097656 369.882812 143.910156 348.148438 135.769531 320.433594 L 150.398438 291.832031 C 146.835938 285.859375 144.671875 278.488281 143.273438 270.097656 C 142.636719 266.027344 142.636719 262.214844 143.273438 258.53125 C 142.636719 256.875 142.257812 255.222656 142.382812 253.699219 C 142.765625 249.121094 145.054688 246.324219 148.871094 245.5625 C 156.25 235.777344 169.476562 229.671875 184.617188 228.019531 C 201.027344 226.496094 218.578125 233.234375 219.46875 256.621094 Z M 41.636719 623.988281 C 41.382812 619.667969 40.617188 615.089844 39.601562 610.261719 C 33.496094 583.695312 22.171875 551.152344 11.488281 525.984375 C -8.609375 536.023438 -54.53125 545.433594 -83.664062 550.769531 C -73.613281 572 -58.605469 596.40625 -36.851562 624.371094 C -56.1875 622.464844 -83.535156 621.449219 -87.605469 630.601562 C -90.152344 636.191406 -83.917969 639.5 -83.917969 639.5 C -83.917969 639.5 -93.332031 638.734375 -94.730469 646.742188 C -95.746094 652.972656 -87.605469 656.40625 -87.605469 656.40625 C -87.605469 656.40625 -94.730469 656.785156 -96.382812 664.667969 C -98.164062 673.4375 -85.445312 674.964844 -85.445312 674.964844 C -85.445312 674.964844 -95.238281 675.21875 -95.367188 684.878906 C -95.621094 702.800781 -42.195312 696.699219 5.382812 688.691406 C 52.957031 680.8125 41.761719 623.988281 41.761719 623.988281 Z M 273.277344 453.90625 L 274.933594 451.492188 C 274.425781 452.253906 273.914062 453.019531 273.277344 453.90625 Z M 446.789062 368.484375 C 446.789062 362.890625 442.335938 358.441406 436.738281 358.441406 C 442.335938 358.441406 446.789062 353.992188 446.789062 348.402344 C 446.789062 342.808594 442.335938 338.359375 436.738281 338.359375 L 434.957031 338.359375 C 433.941406 335.945312 432.289062 333.402344 430.253906 331.238281 C 430.253906 330.730469 418.167969 318.019531 407.101562 319.546875 C 392.851562 321.453125 393.617188 322.34375 380.894531 327.808594 C 367.539062 333.402344 352.019531 362.128906 352.019531 362.128906 C 352.019531 362.128906 325.304688 387.554688 292.996094 427.976562 L 332.9375 533.484375 C 336.5 524.585938 340.316406 514.796875 344.386719 503.609375 C 353.546875 478.566406 371.863281 447.296875 379.625 434.332031 C 384.457031 426.449219 391.582031 420.347656 398.324219 415.898438 C 400.105469 417.550781 402.519531 418.695312 405.191406 418.695312 L 436.613281 418.695312 C 442.210938 418.695312 446.660156 414.246094 446.660156 408.652344 C 446.660156 403.1875 442.210938 398.613281 436.613281 398.613281 C 442.082031 398.613281 446.660156 394.164062 446.660156 388.570312 C 446.660156 382.976562 442.210938 378.527344 436.613281 378.527344 C 442.335938 378.527344 446.789062 374.078125 446.789062 368.484375 Z M 446.789062 368.484375 " fill-opacity="1" fill-rule="nonzero"/><path fill="#6090f2" d="M 472.230469 257.386719 C 472.230469 285.605469 449.332031 308.484375 421.09375 308.484375 C 392.851562 308.484375 369.957031 285.605469 369.957031 257.386719 C 369.957031 229.164062 392.851562 206.285156 421.09375 206.285156 C 449.332031 206.285156 472.230469 229.164062 472.230469 257.386719 Z M 472.230469 257.386719 " fill-opacity="1" fill-rule="nonzero"/><g clip-path="url(#25fce706b9)"><path fill="#000000" d="M 480.371094 257.386719 C 480.371094 224.714844 453.785156 198.148438 421.09375 198.148438 C 388.402344 198.148438 361.816406 224.714844 361.816406 257.386719 C 361.816406 284.84375 380.640625 308.105469 406.210938 314.714844 C 406.210938 315.984375 406.210938 317.382812 406.210938 318.78125 C 400.359375 319.035156 387 322.214844 376.699219 329.078125 C 364.996094 336.960938 352.527344 359.460938 351.382812 361.621094 C 349.09375 363.78125 320.726562 391.746094 293.503906 426.195312 L 293.503906 426.070312 C 293.378906 425.6875 293.125 425.5625 292.742188 425.433594 C 292.359375 425.433594 292.105469 425.5625 291.851562 425.816406 L 273.789062 451.621094 L 263.992188 419.078125 C 246.058594 358.316406 198.988281 342.933594 193.773438 341.410156 C 190.722656 333.910156 192.503906 320.308594 193.902344 310.136719 C 219.089844 308.230469 221.378906 280.648438 220.488281 256.621094 C 220.359375 253.953125 220.105469 251.539062 219.597656 249.25 C 222.652344 248.867188 225.703125 246.453125 227.867188 242.640625 C 231.046875 237.171875 232.445312 228.785156 228.503906 222.175781 C 224.050781 214.800781 219.851562 215.308594 214.128906 215.945312 C 207.894531 216.707031 199.5 217.597656 185.25 210.605469 C 179.527344 207.808594 171.769531 208.316406 163.882812 212.132812 C 150.523438 218.613281 140.476562 232.214844 136.914062 248.613281 C 130.933594 276.324219 146.328125 291.453125 148.488281 293.488281 L 137.675781 314.714844 C 132.078125 315.351562 80.179688 322.214844 55.246094 338.105469 C 55.121094 338.105469 55.121094 338.230469 54.992188 338.230469 C 54.738281 338.359375 23.445312 354.503906 -10.648438 374.839844 C -56.566406 402.171875 -85.699219 423.78125 -97.273438 439.035156 C -124.878906 475.644531 -110.886719 554.585938 -110.757812 555.347656 C -110.632812 555.855469 -110.25 556.109375 -109.867188 556.109375 C -109.867188 556.109375 -109.742188 556.109375 -109.742188 556.109375 C -108.46875 555.855469 -98.417969 554.328125 -84.300781 551.789062 C -73.613281 574.03125 -58.476562 598.058594 -39.015625 623.226562 C -68.527344 620.429688 -85.191406 622.847656 -88.625 630.21875 C -90.277344 633.90625 -88.75 636.828125 -86.84375 638.734375 C -90.53125 639.242188 -94.984375 641.277344 -95.875 646.742188 C -96.636719 651.445312 -92.949219 654.625 -90.40625 656.148438 C -92.820312 657.039062 -96.257812 659.199219 -97.402344 664.539062 C -97.910156 666.828125 -97.527344 668.863281 -96.257812 670.640625 C -94.601562 672.929688 -91.933594 674.199219 -89.640625 674.964844 C -92.695312 676.109375 -96.257812 678.902344 -96.382812 685.003906 C -96.382812 687.675781 -95.367188 690.089844 -93.203125 691.871094 C -89.894531 694.667969 -83.535156 697.589844 -65.980469 697.589844 C -51.351562 697.589844 -29.089844 695.554688 5.636719 689.835938 C 18.484375 687.675781 28.277344 681.828125 34.765625 672.421875 C 44.433594 658.4375 44.433594 640.386719 43.671875 630.726562 C 61.226562 634.160156 82.597656 637.464844 106.765625 637.464844 C 138.949219 637.464844 176.21875 631.742188 215.910156 613.4375 C 216.164062 613.3125 216.289062 613.058594 216.417969 612.804688 L 221.125 596.660156 C 227.484375 601.746094 258.90625 625.898438 287.90625 621.828125 C 301.644531 619.921875 314.367188 606.828125 325.941406 582.804688 C 334.464844 565.007812 339.171875 547.59375 339.171875 547.464844 C 339.171875 547.210938 339.171875 547.085938 339.171875 546.828125 L 334.210938 533.609375 C 337.898438 524.332031 341.714844 514.414062 345.53125 504.117188 C 354.691406 478.949219 373.261719 447.425781 380.769531 434.96875 C 385.855469 426.703125 394 420.347656 398.578125 417.171875 C 400.484375 418.695312 402.902344 419.714844 405.574219 419.714844 L 406.589844 419.714844 L 406.589844 427.59375 C 406.589844 435.730469 413.207031 442.339844 421.347656 442.339844 C 429.488281 442.339844 436.105469 435.730469 436.105469 427.59375 L 436.105469 419.714844 L 437.121094 419.714844 C 443.226562 419.714844 448.0625 414.753906 448.0625 408.78125 C 448.0625 404.332031 445.390625 400.519531 441.574219 398.738281 C 445.390625 397.085938 448.0625 393.144531 448.0625 388.695312 C 448.0625 384.246094 445.390625 380.433594 441.574219 378.65625 C 445.390625 377.003906 448.0625 373.0625 448.0625 368.613281 C 448.0625 364.164062 445.390625 360.351562 441.574219 358.570312 C 445.390625 356.917969 448.0625 352.976562 448.0625 348.527344 C 448.0625 342.425781 443.101562 337.597656 437.121094 337.597656 L 436.105469 337.597656 L 436.105469 314.714844 C 461.417969 308.230469 480.371094 284.96875 480.371094 257.386719 Z M 153.324219 247.34375 C 154.339844 246.199219 155.359375 245.691406 156.503906 245.816406 C 158.03125 245.945312 159.046875 246.453125 159.9375 247.46875 C 161.464844 249.25 162.226562 252.683594 161.847656 257.132812 L 161.847656 257.765625 L 168.96875 261.835938 L 168.585938 259.800781 C 168.460938 259.292969 166.171875 247.34375 179.144531 242.003906 C 185.378906 239.335938 191.484375 241.75 198.609375 244.417969 C 204.078125 246.582031 210.3125 248.996094 217.691406 249.25 C 218.199219 251.539062 218.582031 253.953125 218.707031 256.621094 C 219.597656 280.140625 217.308594 307.214844 192.757812 308.230469 C 191.738281 308.230469 190.722656 308.230469 189.703125 308.230469 C 189.449219 308.230469 189.066406 308.230469 188.8125 308.230469 C 188.050781 308.230469 187.289062 308.230469 186.523438 308.105469 C 186.269531 308.105469 186.015625 308.105469 185.761719 308.105469 C 184.742188 308.105469 183.851562 307.976562 182.835938 307.851562 C 182.835938 307.851562 182.707031 307.851562 182.707031 307.851562 C 181.816406 307.722656 180.800781 307.597656 179.910156 307.46875 C 179.78125 307.46875 179.65625 307.46875 179.527344 307.46875 C 167.570312 305.433594 158.03125 299.460938 151.667969 290.054688 L 151.542969 289.800781 C 153.324219 284.96875 156.121094 275.945312 155.484375 268.445312 L 155.484375 267.9375 L 155.105469 267.683594 C 154.976562 267.554688 151.667969 265.648438 150.523438 260.054688 C 149.632812 256.621094 150.652344 250.394531 153.324219 247.34375 Z M 151.035156 292.597656 C 159.046875 303.527344 171.132812 309.503906 186.398438 310.265625 C 186.90625 310.265625 187.414062 310.265625 187.921875 310.265625 C 188.304688 310.265625 188.6875 310.265625 189.066406 310.265625 C 189.324219 310.265625 189.578125 310.265625 189.703125 310.265625 C 190.085938 310.265625 190.46875 310.265625 190.976562 310.265625 C 191.230469 310.265625 191.613281 310.265625 191.867188 310.265625 C 190.46875 320.816406 188.6875 334.800781 192.121094 342.554688 C 193.394531 345.476562 194.539062 349.417969 192.628906 351.707031 C 191.484375 353.105469 189.324219 353.867188 186.269531 353.992188 C 184.488281 353.992188 182.453125 353.867188 180.035156 353.359375 C 165.152344 350.433594 141.621094 336.578125 136.660156 320.5625 Z M -108.976562 554.074219 C -110.503906 545.175781 -121.1875 473.992188 -95.746094 440.179688 C -84.554688 425.304688 -54.789062 403.1875 -9.757812 376.367188 C 24.335938 356.027344 55.5 340.011719 55.882812 339.882812 C 63.640625 334.925781 71.527344 332.511719 79.160156 332.511719 C 83.359375 332.511719 87.429688 333.273438 91.628906 334.671875 C 102.441406 338.484375 112.488281 347.382812 120.628906 360.222656 C 125.847656 368.359375 126.992188 378.78125 124.191406 390.09375 C 118.722656 412.339844 99.132812 435.476562 72.929688 450.601562 L 2.074219 499.289062 C 1.691406 499.542969 1.566406 500.050781 1.820312 500.558594 L 14.285156 523.3125 C 13.269531 523.949219 12.125 524.585938 10.851562 525.21875 C -6.957031 533.992188 -45.375 542.507812 -72.597656 547.71875 C -72.976562 547.847656 -73.359375 547.847656 -73.867188 547.972656 C -74.121094 547.972656 -74.378906 548.101562 -74.632812 548.101562 C -91.675781 551.277344 -105.289062 553.441406 -108.976562 554.074219 Z M 16.320312 523.3125 L 3.726562 500.433594 L 27.007812 484.414062 C 24.335938 502.085938 21.535156 521.152344 18.609375 541.363281 C 16.703125 536.277344 14.667969 531.320312 12.632812 526.492188 C 13.90625 525.855469 15.050781 525.21875 16.066406 524.585938 C 16.449219 524.203125 16.574219 523.695312 16.320312 523.3125 Z M -94.601562 669.496094 C -95.492188 668.097656 -95.875 666.699219 -95.492188 664.921875 C -94.09375 657.929688 -87.859375 657.421875 -87.605469 657.421875 C -87.226562 657.421875 -62.039062 656.023438 -51.351562 657.421875 L -51.097656 655.515625 C -61.65625 654.117188 -84.808594 655.386719 -87.480469 655.515625 C -88.625 655.007812 -94.601562 651.957031 -93.839844 646.996094 C -92.820312 641.023438 -86.714844 640.515625 -84.679688 640.515625 C -84.300781 640.515625 -84.171875 640.515625 -84.042969 640.515625 C -84.042969 640.515625 -83.917969 640.515625 -83.917969 640.515625 C -83.664062 640.515625 -63.945312 639.625 -50.589844 642.675781 L -50.207031 640.769531 C -62.929688 637.84375 -81.375 638.480469 -83.789062 638.480469 C -84.808594 637.84375 -88.75 635.175781 -86.84375 630.980469 C -83.917969 624.5 -66.363281 622.464844 -37.359375 625.261719 C -32.273438 630.601562 -26.292969 632.507812 -22.476562 633.140625 C -30.109375 636.957031 -36.34375 644.074219 -40.667969 654.242188 C -43.71875 661.488281 -44.992188 667.972656 -45.375 670.132812 C -45.628906 670.132812 -45.882812 670.132812 -46.265625 670.132812 C -68.90625 670.132812 -83.789062 673.4375 -85.570312 673.945312 C -86.460938 673.820312 -92.1875 672.800781 -94.601562 669.496094 Z M 33.113281 671.277344 C 26.878906 680.175781 17.464844 685.769531 5.253906 687.800781 C -30.746094 693.777344 -79.972656 700.640625 -91.933594 690.34375 C -93.710938 688.820312 -94.476562 687.039062 -94.476562 684.878906 C -94.347656 676.234375 -85.824219 675.851562 -85.445312 675.851562 C -85.316406 675.851562 -85.316406 675.851562 -85.191406 675.851562 C -85.0625 675.851562 -69.289062 671.914062 -44.484375 672.039062 C -43.976562 672.039062 -43.59375 671.660156 -43.59375 671.148438 C -43.59375 670.894531 -39.394531 640.515625 -18.152344 633.394531 C -17.644531 633.269531 -17.386719 632.761719 -17.515625 632.378906 C -17.644531 631.871094 -18.023438 631.488281 -18.535156 631.617188 C -18.660156 631.617188 -28.582031 632 -36.214844 623.734375 C -56.058594 598.3125 -71.578125 574.03125 -82.390625 551.535156 C -57.839844 547.085938 -22.476562 539.839844 0.164062 531.703125 C 0.929688 531.449219 1.691406 531.195312 2.457031 530.8125 C 2.582031 530.8125 2.582031 530.8125 2.710938 530.6875 C 3.472656 530.433594 4.109375 530.175781 4.746094 529.921875 C 4.746094 529.921875 4.871094 529.921875 4.871094 529.921875 C 7.035156 529.035156 8.941406 528.269531 10.851562 527.382812 C 10.851562 527.382812 10.980469 527.382812 10.980469 527.382812 C 13.777344 533.992188 16.449219 540.855469 19.121094 547.847656 C 19.246094 548.226562 19.375 548.609375 19.5 548.992188 C 26.878906 568.566406 33.238281 588.777344 37.4375 605.683594 C 37.4375 605.8125 37.566406 606.066406 37.566406 606.195312 C 37.945312 607.71875 38.328125 609.117188 38.582031 610.640625 C 39.601562 615.089844 40.234375 619.414062 40.617188 623.609375 C 40.617188 623.734375 40.617188 623.988281 40.617188 624.117188 C 40.617188 624.117188 40.617188 624.117188 40.617188 624.242188 C 40.617188 624.5 40.746094 624.625 40.871094 624.753906 C 41.636719 628.566406 45.324219 653.734375 33.113281 671.277344 Z M 337.265625 547.210938 C 335.863281 552.042969 317.800781 615.855469 287.652344 619.921875 C 258.140625 623.988281 225.832031 598.058594 221.632812 594.625 C 223.667969 586.363281 246.058594 490.136719 215.273438 368.359375 L 213.363281 368.867188 C 245.292969 495.21875 219.851562 593.863281 219.597656 594.753906 L 214.636719 611.785156 C 145.4375 643.566406 83.867188 636.828125 43.417969 628.691406 C 43.289062 626.914062 43.035156 625.640625 42.90625 624.878906 C 42.78125 624.371094 42.78125 623.988281 42.78125 623.988281 C 42.78125 623.863281 42.652344 623.734375 42.527344 623.609375 C 42.144531 619.285156 41.507812 614.835938 40.492188 610.261719 C 40.109375 608.863281 39.855469 607.335938 39.472656 605.8125 C 39.472656 605.683594 39.347656 605.429688 39.347656 605.304688 C 35.148438 588.269531 28.789062 568.1875 21.15625 547.847656 C 21.027344 547.464844 20.902344 547.085938 20.773438 546.703125 C 20.519531 546.195312 20.390625 545.6875 20.136719 545.175781 C 23.316406 523.1875 26.371094 502.339844 29.296875 483.273438 L 29.167969 483.273438 L 74.074219 452.382812 C 100.660156 437.128906 120.503906 413.484375 126.101562 390.730469 C 129.027344 378.78125 127.753906 367.976562 122.285156 359.332031 C 113.890625 346.113281 103.457031 336.960938 92.265625 333.019531 C 86.539062 330.984375 80.6875 330.351562 74.835938 331.113281 C 98.75 322.34375 128.898438 318.019531 136.53125 317.003906 L 135.003906 320.179688 L 134.75 320.6875 L 134.878906 321.070312 C 135.003906 321.324219 135.003906 321.578125 135.132812 321.832031 C 135.257812 322.085938 135.257812 322.34375 135.386719 322.597656 C 138.695312 331.621094 147.089844 339.757812 156.375 345.730469 C 157.265625 346.367188 158.285156 346.875 159.300781 347.511719 C 159.554688 347.636719 159.8125 347.765625 160.066406 348.019531 C 160.828125 348.402344 161.589844 348.78125 162.226562 349.164062 C 163.117188 349.671875 164.007812 350.054688 164.773438 350.433594 C 165.027344 350.5625 165.152344 350.5625 165.40625 350.6875 C 166.550781 351.199219 167.570312 351.707031 168.714844 352.214844 C 169.605469 352.59375 170.496094 352.976562 171.257812 353.230469 C 171.640625 353.359375 171.894531 353.484375 172.277344 353.613281 C 172.785156 353.738281 173.292969 353.992188 173.804688 354.121094 C 174.566406 354.375 175.328125 354.628906 175.964844 354.757812 C 176.21875 354.757812 176.347656 354.882812 176.601562 354.882812 C 177.621094 355.136719 178.636719 355.390625 179.65625 355.644531 C 180.417969 355.773438 181.179688 355.902344 181.945312 356.027344 C 182.070312 356.027344 182.328125 356.027344 182.453125 356.027344 C 183.214844 356.15625 183.851562 356.15625 184.488281 356.15625 C 184.617188 356.15625 184.617188 356.15625 184.742188 356.15625 C 185.125 356.15625 185.378906 356.15625 185.761719 356.15625 C 186.015625 356.15625 186.269531 356.15625 186.398438 356.15625 C 186.523438 356.15625 186.652344 356.15625 186.90625 356.15625 C 187.542969 356.15625 188.050781 356.027344 188.558594 356.027344 C 188.6875 356.027344 188.6875 356.027344 188.8125 356.027344 C 189.195312 355.902344 189.703125 355.902344 190.085938 355.773438 C 190.214844 355.773438 190.339844 355.644531 190.46875 355.644531 C 190.976562 355.519531 191.359375 355.265625 191.738281 355.136719 C 191.738281 355.136719 191.867188 355.136719 191.867188 355.011719 C 192.25 354.882812 192.503906 354.628906 192.882812 354.375 C 193.011719 354.25 193.011719 354.25 193.140625 354.121094 C 193.394531 353.867188 193.773438 353.613281 194.027344 353.230469 C 194.285156 352.976562 194.410156 352.59375 194.664062 352.339844 C 194.664062 352.214844 194.792969 352.085938 194.792969 352.085938 C 194.917969 351.832031 195.046875 351.578125 195.046875 351.324219 C 195.046875 351.199219 195.175781 351.070312 195.175781 350.941406 C 195.300781 350.6875 195.300781 350.433594 195.300781 350.179688 C 195.300781 350.054688 195.300781 349.925781 195.300781 349.671875 C 195.300781 349.417969 195.300781 349.164062 195.300781 348.910156 C 195.300781 348.78125 195.300781 348.65625 195.300781 348.402344 C 195.300781 348.148438 195.300781 347.765625 195.175781 347.511719 C 195.175781 347.382812 195.175781 347.257812 195.175781 347.003906 C 195.175781 346.621094 195.046875 346.238281 194.917969 345.859375 C 194.917969 345.730469 194.917969 345.605469 194.792969 345.605469 C 194.664062 345.097656 194.539062 344.585938 194.285156 344.078125 C 203.570312 347.128906 245.167969 363.910156 261.832031 420.09375 L 272.132812 454.542969 C 272.261719 454.925781 272.515625 455.179688 272.898438 455.179688 C 273.277344 455.304688 273.660156 455.050781 273.789062 454.796875 L 291.976562 428.867188 L 332.8125 536.535156 Z M 378.988281 433.824219 C 371.484375 446.28125 352.910156 478.058594 343.625 503.355469 C 340.0625 513.015625 336.628906 522.296875 333.195312 530.941406 L 294.269531 428.230469 C 322.253906 392.765625 351.511719 364.035156 352.785156 362.765625 L 352.910156 362.511719 C 353.039062 362.257812 366.011719 338.359375 377.714844 330.476562 C 388.273438 323.359375 402.140625 320.433594 407.101562 320.433594 C 412.316406 320.433594 415.496094 321.453125 425.292969 328.1875 C 429.105469 330.730469 432.289062 334.546875 433.941406 338.230469 L 433.941406 338.359375 C 434.070312 338.613281 434.195312 338.738281 434.195312 338.996094 C 434.195312 339.121094 434.324219 339.25 434.324219 339.375 C 434.449219 339.628906 434.578125 339.882812 434.578125 340.136719 C 434.703125 340.390625 434.703125 340.648438 434.832031 340.773438 C 434.832031 340.902344 434.957031 341.027344 434.957031 341.15625 C 435.085938 341.410156 435.085938 341.789062 435.085938 342.046875 C 435.085938 342.046875 435.085938 342.171875 435.085938 342.171875 C 435.085938 342.554688 435.214844 342.808594 435.214844 343.1875 C 435.214844 343.1875 435.214844 343.1875 435.214844 343.316406 C 435.214844 343.570312 435.214844 343.824219 435.214844 344.207031 C 435.214844 344.207031 435.214844 344.332031 435.214844 344.332031 C 435.214844 344.585938 435.214844 344.839844 435.085938 344.96875 C 435.085938 345.097656 435.085938 345.097656 435.085938 345.222656 C 435.085938 345.351562 434.957031 345.605469 434.957031 345.730469 C 434.957031 345.859375 434.832031 345.984375 434.832031 346.113281 C 434.832031 346.238281 434.703125 346.367188 434.578125 346.492188 C 434.449219 346.621094 434.449219 346.75 434.324219 346.875 C 434.195312 347.003906 434.195312 347.003906 434.070312 347.128906 C 433.941406 347.257812 433.8125 347.382812 433.8125 347.382812 C 433.6875 347.511719 433.6875 347.511719 433.558594 347.636719 C 433.433594 347.765625 433.304688 347.890625 433.050781 348.019531 C 432.921875 348.148438 432.796875 348.148438 432.667969 348.273438 C 432.542969 348.402344 432.289062 348.402344 432.160156 348.527344 C 432.03125 348.527344 431.90625 348.65625 431.777344 348.65625 C 431.652344 348.65625 431.398438 348.78125 431.269531 348.78125 C 431.144531 348.78125 431.015625 348.78125 430.886719 348.910156 C 430.632812 348.910156 430.507812 349.035156 430.253906 349.035156 C 430.125 349.035156 429.996094 349.035156 429.996094 349.035156 C 429.617188 349.035156 429.234375 349.164062 428.851562 349.164062 C 417.277344 349.417969 407.992188 337.976562 407.992188 337.851562 C 407.738281 337.722656 407.480469 337.597656 407.226562 337.597656 C 406.71875 337.597656 406.335938 337.976562 406.335938 338.359375 C 406.210938 339.375 404.554688 348.402344 399.085938 356.410156 C 399.085938 356.410156 395.90625 361.621094 386.746094 366.707031 L 387.636719 368.359375 C 391.582031 366.195312 394.378906 364.035156 396.414062 362.257812 C 395.144531 364.035156 394.378906 366.195312 394.378906 368.613281 C 394.378906 373.0625 397.050781 376.875 400.867188 378.65625 C 397.050781 380.308594 394.378906 384.246094 394.378906 388.695312 C 394.378906 393.144531 397.050781 396.960938 400.867188 398.738281 C 397.050781 400.390625 394.378906 404.332031 394.378906 408.78125 C 394.378906 411.449219 395.398438 413.992188 397.050781 415.898438 C 392.21875 419.078125 384.074219 425.433594 378.988281 433.824219 Z M 408.117188 318.65625 C 408.117188 317.382812 408.117188 316.242188 408.117188 315.097656 C 412.316406 315.984375 416.640625 316.496094 421.09375 316.496094 C 425.546875 316.496094 429.742188 315.984375 433.941406 315.097656 L 433.941406 334.289062 C 432.03125 331.496094 429.488281 328.699219 426.4375 326.664062 C 416.769531 320.179688 413.207031 318.910156 408.117188 318.65625 Z M 400.867188 358.441406 C 400.230469 358.695312 399.59375 359.078125 398.960938 359.460938 C 399.46875 358.824219 399.851562 358.441406 400.105469 358.0625 C 400.484375 358.1875 400.738281 358.441406 400.867188 358.441406 Z M 433.941406 427.339844 C 433.941406 434.332031 428.21875 440.179688 421.09375 440.179688 C 414.097656 440.179688 408.246094 434.457031 408.246094 427.339844 L 408.246094 419.460938 L 433.8125 419.460938 L 433.8125 427.339844 Z M 445.898438 408.527344 C 445.898438 413.484375 441.828125 417.550781 436.867188 417.550781 L 405.445312 417.550781 C 400.484375 417.550781 396.414062 413.484375 396.414062 408.527344 C 396.414062 403.570312 400.484375 399.5 405.445312 399.5 L 436.867188 399.5 C 441.828125 399.5 445.898438 403.570312 445.898438 408.527344 Z M 445.898438 388.570312 C 445.898438 393.527344 441.828125 397.59375 436.867188 397.59375 L 405.445312 397.59375 C 400.484375 397.59375 396.414062 393.527344 396.414062 388.570312 C 396.414062 383.613281 400.484375 379.542969 405.445312 379.542969 L 436.867188 379.542969 C 441.828125 379.417969 445.898438 383.484375 445.898438 388.570312 Z M 445.898438 368.484375 C 445.898438 373.441406 441.828125 377.511719 436.867188 377.511719 L 405.445312 377.511719 C 400.484375 377.511719 396.414062 373.441406 396.414062 368.484375 C 396.414062 363.527344 400.484375 359.460938 405.445312 359.460938 L 436.867188 359.460938 C 441.828125 359.460938 445.898438 363.527344 445.898438 368.484375 Z M 435.976562 347.890625 C 435.976562 347.765625 436.105469 347.765625 436.105469 347.636719 C 436.105469 347.636719 436.105469 347.511719 436.230469 347.511719 C 436.359375 347.257812 436.484375 347.128906 436.613281 346.875 C 436.613281 346.875 436.613281 346.75 436.738281 346.75 C 436.867188 346.492188 436.996094 346.113281 436.996094 345.859375 C 436.996094 345.859375 436.996094 345.730469 436.996094 345.730469 C 437.121094 345.476562 437.121094 345.097656 437.121094 344.839844 C 437.121094 344.714844 437.121094 344.460938 437.121094 344.332031 C 437.121094 344.207031 437.121094 343.953125 437.121094 343.824219 C 437.121094 343.570312 437.121094 343.316406 437.121094 343.0625 C 437.121094 342.933594 437.121094 342.808594 437.121094 342.679688 C 437.121094 342.300781 436.996094 342.046875 436.996094 341.664062 C 436.996094 341.664062 436.996094 341.664062 436.996094 341.535156 C 436.867188 340.773438 436.613281 340.011719 436.359375 339.121094 L 436.738281 339.121094 C 441.699219 339.121094 445.769531 343.1875 445.769531 348.148438 C 445.769531 353.105469 441.699219 357.171875 436.738281 357.171875 L 405.320312 357.171875 C 403.921875 357.171875 402.519531 356.789062 401.25 356.15625 C 405.320312 349.925781 407.101562 343.1875 407.863281 340.011719 C 410.027344 342.425781 414.859375 347.003906 421.21875 349.164062 C 421.476562 349.289062 421.601562 349.289062 421.855469 349.417969 C 422.238281 349.542969 422.492188 349.671875 422.875 349.671875 C 423.253906 349.800781 423.636719 349.800781 423.890625 349.925781 C 424.144531 349.925781 424.402344 350.054688 424.65625 350.054688 C 425.292969 350.179688 425.925781 350.308594 426.691406 350.308594 C 427.199219 350.308594 427.835938 350.433594 428.472656 350.433594 C 428.597656 350.433594 428.851562 350.433594 428.980469 350.433594 C 428.980469 350.433594 428.980469 350.433594 429.105469 350.433594 C 429.488281 350.433594 429.871094 350.433594 430.253906 350.308594 C 430.378906 350.308594 430.507812 350.308594 430.632812 350.308594 C 431.015625 350.308594 431.398438 350.179688 431.652344 350.054688 C 431.652344 350.054688 431.652344 350.054688 431.777344 350.054688 C 432.160156 349.925781 432.414062 349.800781 432.667969 349.800781 C 432.796875 349.800781 432.796875 349.671875 432.921875 349.671875 C 433.179688 349.542969 433.304688 349.417969 433.558594 349.417969 C 433.558594 349.417969 433.6875 349.289062 433.8125 349.289062 C 434.070312 349.164062 434.195312 349.035156 434.449219 348.910156 C 434.578125 348.78125 434.703125 348.78125 434.703125 348.65625 C 434.832031 348.527344 434.832031 348.527344 434.957031 348.402344 C 435.339844 348.65625 435.722656 348.273438 435.976562 347.890625 Z M 421.09375 307.214844 C 393.617188 307.214844 371.226562 284.84375 371.226562 257.386719 C 371.226562 229.929688 393.617188 207.554688 421.09375 207.554688 C 448.570312 207.554688 470.957031 229.929688 470.957031 257.386719 C 470.957031 284.84375 448.570312 307.214844 421.09375 307.214844 Z M 193.773438 264.503906 C 195.046875 264.503906 196.066406 265.902344 195.9375 267.425781 C 195.9375 269.078125 194.917969 270.351562 193.648438 270.351562 C 192.375 270.351562 191.359375 268.953125 191.484375 267.425781 C 191.613281 265.902344 192.503906 264.503906 193.773438 264.503906 Z M 209.929688 267.683594 C 209.929688 269.335938 208.914062 270.605469 207.640625 270.605469 C 206.367188 270.605469 205.351562 269.207031 205.476562 267.683594 C 205.605469 266.15625 206.496094 264.757812 207.765625 264.757812 C 209.039062 264.757812 209.929688 266.15625 209.929688 267.683594 Z M 200.007812 282.171875 C 199.246094 282.171875 198.480469 282.046875 198.101562 282.046875 L 198.355469 280.140625 C 199.753906 280.394531 201.28125 280.265625 201.535156 280.011719 C 201.535156 280.011719 201.535156 280.011719 201.535156 279.886719 C 200.898438 277.46875 200.136719 269.078125 200.007812 268.699219 L 201.914062 268.570312 C 201.914062 268.699219 202.679688 277.214844 203.316406 279.375 C 203.570312 280.140625 203.316406 280.773438 202.933594 281.28125 C 202.425781 282.046875 201.152344 282.171875 200.007812 282.171875 Z M 202.679688 293.105469 L 201.40625 294.503906 C 198.992188 292.46875 194.410156 289.292969 192.121094 289.546875 L 191.867188 287.640625 C 195.683594 287.257812 202.042969 292.597656 202.679688 293.105469 Z M 186.140625 262.46875 L 185.125 260.945312 C 185.761719 260.5625 190.847656 257.003906 194.285156 257.132812 L 194.285156 259.039062 C 191.867188 258.910156 187.667969 261.453125 186.140625 262.46875 Z M 205.222656 259.164062 L 205.097656 257.257812 C 208.402344 257.003906 213.746094 260.308594 214.382812 260.691406 L 213.363281 262.34375 C 211.964844 261.453125 207.511719 259.039062 205.222656 259.164062 Z M 433.558594 238.445312 L 434.832031 239.84375 L 390.183594 280.648438 L 388.910156 279.25 Z M 433.179688 256.875 L 434.449219 258.273438 L 408.628906 281.917969 L 407.355469 280.519531 Z M 452.003906 239.714844 L 453.277344 241.113281 L 443.734375 249.886719 L 442.464844 248.488281 Z M 452.003906 239.714844 " fill-opacity="1" fill-rule="nonzero"/></g><g clip-path="url(#e5fccf07a4)"><g clip-path="url(#c739f11bab)"><path stroke-linecap="butt" transform="matrix(0.75, 0, 0, 0.75, 522.938762, 377.985268)" fill="none" stroke-linejoin="miter" d="M 20.289983 -0.0011905 L 150.472272 -0.0011905 C 161.675397 -0.0011905 170.75873 9.082143 170.75873 20.290476 C 170.75873 31.4936 161.675397 40.576934 150.472272 40.576934 L 20.289983 40.576934 C 9.08165 40.576934 -0.00168289 31.4936 -0.00168289 20.290476 C -0.00168289 9.082143 9.08165 -0.0011905 20.289983 -0.0011905 Z M 20.289983 -0.0011905 " stroke="#000000" stroke-width="4" stroke-opacity="1" stroke-miterlimit="4"/></g></g><g fill="#000000" fill-opacity="1"><g transform="translate(567.677464, 397.605465)"><g><path d="M 6.492188 -8.945312 L 6.492188 -4.832031 L 1.800781 -4.832031 L 1.800781 -8.945312 L 0.742188 -8.945312 L 0.742188 0 L 1.800781 0 L 1.800781 -3.949219 L 6.492188 -3.949219 L 6.492188 0 L 7.566406 0 L 7.566406 -8.945312 Z M 6.492188 -8.945312 "/></g></g></g><g fill="#000000" fill-opacity="1"><g transform="translate(577.143801, 397.605465)"><g><path d="M 4.574219 -9.058594 C 2.210938 -9.058594 0.550781 -7.5 0.550781 -4.472656 C 0.550781 -1.457031 2.210938 0.113281 4.574219 0.113281 C 6.925781 0.113281 8.601562 -1.457031 8.601562 -4.472656 C 8.601562 -7.5 6.925781 -9.058594 4.574219 -9.058594 Z M 4.574219 -0.832031 C 2.824219 -0.832031 1.648438 -2.03125 1.648438 -4.472656 C 1.648438 -6.925781 2.824219 -8.125 4.574219 -8.125 C 6.324219 -8.125 7.488281 -6.925781 7.488281 -4.472656 C 7.488281 -2.03125 6.324219 -0.832031 4.574219 -0.832031 Z M 4.574219 -0.832031 "/></g></g></g><g fill="#000000" fill-opacity="1"><g transform="translate(587.453191, 397.605465)"><g><path d="M 0.742188 -8.945312 L 0.742188 0 L 1.800781 0 L 1.800781 -6.976562 L 1.839844 -6.976562 L 4.867188 0 L 5.738281 0 L 8.753906 -6.976562 L 8.792969 -6.976562 L 8.792969 0 L 9.863281 0 L 9.863281 -8.945312 L 8.675781 -8.945312 L 5.304688 -1.355469 L 1.917969 -8.945312 Z M 0.742188 -8.945312 "/></g></g></g><g fill="#000000" fill-opacity="1"><g transform="translate(599.218757, 397.605465)"><g><path d="M 1.800781 -0.945312 L 1.800781 -4.164062 L 5.902344 -4.164062 L 5.902344 -5.035156 L 1.800781 -5.035156 L 1.800781 -8.011719 L 6.542969 -8.011719 L 6.542969 -8.945312 L 0.742188 -8.945312 L 0.742188 0 L 6.671875 0 L 6.671875 -0.945312 Z M 1.800781 -0.945312 "/></g></g></g><g clip-path="url(#f761b936cc)"><g clip-path="url(#82fe09b702)"><path stroke-linecap="butt" transform="matrix(0.75, 0, 0, 0.75, 670.10534, 377.985268)" fill="none" stroke-linejoin="miter" d="M 20.28663 -0.0011905 L 150.468919 -0.0011905 C 161.677252 -0.0011905 170.760585 9.082143 170.760585 20.290476 C 170.760585 31.4936 161.677252 40.576934 150.468919 40.576934 L 20.28663 40.576934 C 9.083505 40.576934 0.000171815 31.4936 0.000171815 20.290476 C 0.000171815 9.082143 9.083505 -0.0011905 20.28663 -0.0011905 Z M 20.28663 -0.0011905 " stroke="#000000" stroke-width="4" stroke-opacity="1" stroke-miterlimit="4"/></g></g><g fill="#000000" fill-opacity="1"><g transform="translate(522.30977, 303.249885)"><g><path d="M 11.375 -12.335938 L 8.339844 -12.941406 C 5.71875 -13.453125 4.570312 -14.730469 4.570312 -16.554688 C 4.570312 -18.4375 6.007812 -20.390625 9.554688 -20.390625 C 12.910156 -20.390625 14.378906 -18.757812 14.765625 -16.714844 L 17.480469 -16.714844 C 17.03125 -20.324219 14.316406 -22.65625 9.554688 -22.65625 C 4.539062 -22.65625 1.820312 -20.003906 1.820312 -16.617188 C 1.820312 -13.261719 4.089844 -11.535156 7.828125 -10.769531 L 11.089844 -10.128906 C 13.484375 -9.652344 15.339844 -8.691406 15.339844 -6.136719 C 15.339844 -3.738281 13.453125 -1.980469 9.8125 -1.980469 C 6.007812 -1.980469 4.539062 -4.121094 4.121094 -6.519531 L 1.375 -6.519531 C 1.757812 -2.554688 4.472656 0.289062 9.8125 0.289062 C 14.925781 0.289062 18.085938 -2.171875 18.085938 -6.105469 C 18.085938 -9.90625 15.59375 -11.472656 11.375 -12.335938 Z M 11.375 -12.335938 "/></g></g></g><g fill="#000000" fill-opacity="1"><g transform="translate(541.769023, 303.249885)"><g><path d="M 8.757812 -16.777344 C 5.113281 -16.777344 1.054688 -14.15625 1.054688 -8.308594 C 1.054688 -2.398438 5.113281 0.222656 8.757812 0.222656 C 12.398438 0.222656 16.488281 -2.398438 16.488281 -8.308594 C 16.488281 -14.15625 12.398438 -16.777344 8.757812 -16.777344 Z M 13.996094 -8.308594 C 13.996094 -3.898438 11.441406 -1.917969 8.757812 -1.917969 C 6.070312 -1.917969 3.515625 -3.898438 3.515625 -8.308594 C 3.515625 -12.6875 6.070312 -14.636719 8.757812 -14.636719 C 11.441406 -14.636719 13.996094 -12.6875 13.996094 -8.308594 Z M 13.996094 -8.308594 "/></g></g></g><g fill="#000000" fill-opacity="1"><g transform="translate(559.279153, 303.249885)"><g><path d="M 10.097656 -16.777344 C 6.902344 -16.777344 4.953125 -14.828125 4.410156 -12.589844 L 4.410156 -16.617188 L 1.855469 -16.617188 L 1.855469 0 L 4.410156 0 L 4.410156 -9.714844 C 4.953125 -12.625 6.902344 -14.476562 10.289062 -14.476562 C 10.515625 -14.476562 10.800781 -14.476562 11.28125 -14.445312 L 11.28125 -16.714844 C 10.800781 -16.777344 10.449219 -16.777344 10.097656 -16.777344 Z M 10.097656 -16.777344 "/></g></g></g><g fill="#000000" fill-opacity="1"><g transform="translate(571.421211, 303.249885)"><g><path d="M 10.097656 -16.777344 C 6.902344 -16.777344 4.953125 -14.828125 4.410156 -12.589844 L 4.410156 -16.617188 L 1.855469 -16.617188 L 1.855469 0 L 4.410156 0 L 4.410156 -9.714844 C 4.953125 -12.625 6.902344 -14.476562 10.289062 -14.476562 C 10.515625 -14.476562 10.800781 -14.476562 11.28125 -14.445312 L 11.28125 -16.714844 C 10.800781 -16.777344 10.449219 -16.777344 10.097656 -16.777344 Z M 10.097656 -16.777344 "/></g></g></g><g fill="#000000" fill-opacity="1"><g transform="translate(583.563269, 303.249885)"><g><path d="M 13.773438 -16.617188 L 8.53125 -2.941406 L 3.386719 -16.617188 L 0.734375 -16.617188 L 7.0625 -0.800781 C 7.316406 -0.160156 7.285156 0.191406 6.933594 1.117188 C 6.199219 2.972656 4.921875 4.121094 2.523438 3.804688 L 2.523438 6.039062 C 5.6875 6.421875 7.667969 5.082031 9.234375 1.214844 L 16.394531 -16.617188 Z M 13.773438 -16.617188 "/></g></g></g><g fill="#000000" fill-opacity="1"><g transform="translate(600.658018, 303.249885)"><g><path d="M 1.597656 4.632812 C 3.164062 4.601562 4.664062 3.867188 4.664062 0.800781 L 4.664062 -3.257812 L 1.597656 -3.257812 L 1.597656 0 L 2.84375 0 L 2.84375 0.992188 C 2.84375 2.523438 2.554688 3.324219 1.597656 3.769531 Z M 1.597656 4.632812 "/></g></g></g><g fill="#000000" fill-opacity="1"><g transform="translate(606.92077, 303.249885)"><g/></g></g><g fill="#000000" fill-opacity="1"><g transform="translate(615.643881, 303.249885)"><g><path d="M 7.351562 -1.886719 C 6.105469 -1.886719 5.6875 -2.398438 5.6875 -3.292969 L 5.6875 -14.574219 L 8.917969 -14.574219 L 8.917969 -16.617188 L 5.6875 -16.617188 L 5.6875 -20.773438 L 3.132812 -20.773438 L 3.132812 -16.617188 L 0.574219 -16.617188 L 0.574219 -14.574219 L 3.132812 -14.574219 L 3.132812 -3.035156 C 3.132812 -0.449219 4.664062 0.191406 6.582031 0.191406 C 7.542969 0.191406 8.46875 0.0625 9.171875 -0.191406 L 9.171875 -2.140625 C 8.46875 -1.949219 7.925781 -1.886719 7.351562 -1.886719 Z M 7.351562 -1.886719 "/></g></g></g><g fill="#000000" fill-opacity="1"><g transform="translate(625.836828, 303.249885)"><g><path d="M 10.320312 -16.777344 C 6.742188 -16.777344 4.761719 -13.964844 4.410156 -12.75 L 4.410156 -22.5625 L 1.855469 -22.5625 L 1.855469 0 L 4.410156 0 L 4.410156 -10.289062 C 4.730469 -11.855469 6.328125 -14.605469 9.492188 -14.605469 C 12.015625 -14.605469 13.675781 -13.453125 13.675781 -9.96875 L 13.675781 0 L 16.234375 0 L 16.234375 -10.066406 C 16.234375 -15.117188 13.644531 -16.777344 10.320312 -16.777344 Z M 10.320312 -16.777344 "/></g></g></g><g fill="#000000" fill-opacity="1"><g transform="translate(643.890152, 303.249885)"><g><path d="M 16.203125 -8.179688 C 16.203125 -14.125 12.78125 -16.777344 8.789062 -16.777344 C 4.859375 -16.777344 1.054688 -14.125 1.054688 -8.277344 C 1.054688 -2.460938 4.699219 0.222656 8.820312 0.222656 C 12.144531 0.222656 14.316406 -0.957031 15.628906 -3.707031 L 13.261719 -3.707031 C 12.273438 -2.300781 11.023438 -1.757812 8.949219 -1.757812 C 5.945312 -1.757812 3.835938 -3.453125 3.546875 -7.382812 L 16.171875 -7.382812 C 16.203125 -7.667969 16.203125 -7.925781 16.203125 -8.179688 Z M 3.546875 -9.140625 C 3.835938 -12.976562 6.007812 -14.796875 8.789062 -14.796875 C 11.695312 -14.796875 13.675781 -12.847656 13.742188 -9.140625 Z M 3.546875 -9.140625 "/></g></g></g><g fill="#000000" fill-opacity="1"><g transform="translate(661.112704, 303.249885)"><g/></g></g><g fill="#000000" fill-opacity="1"><g transform="translate(669.835815, 303.249885)"><g><path d="M 10.003906 -16.777344 C 7.476562 -16.777344 5.402344 -15.53125 4.410156 -13.484375 L 4.410156 -16.617188 L 1.855469 -16.617188 L 1.855469 6.070312 L 4.410156 6.070312 L 4.410156 -3.324219 C 5.242188 -1.34375 7.125 0.222656 9.9375 0.222656 C 13.484375 0.222656 17.351562 -2.363281 17.351562 -8.308594 C 17.351562 -14.1875 13.484375 -16.777344 10.003906 -16.777344 Z M 9.523438 -1.917969 C 6.773438 -1.917969 4.28125 -3.996094 4.28125 -8.308594 C 4.28125 -12.75 6.773438 -14.636719 9.523438 -14.636719 C 12.304688 -14.636719 14.859375 -12.75 14.859375 -8.308594 C 14.859375 -3.867188 12.304688 -1.917969 9.523438 -1.917969 Z M 9.523438 -1.917969 "/></g></g></g><g fill="#000000" fill-opacity="1"><g transform="translate(688.240625, 303.249885)"><g><path d="M 15.148438 -2.875 L 15.148438 -10.449219 C 15.148438 -15.050781 13.007812 -16.777344 8.597656 -16.777344 C 4.761719 -16.777344 2.429688 -15.308594 2.078125 -12.335938 L 4.507812 -12.335938 C 4.792969 -13.933594 6.039062 -14.828125 8.566406 -14.828125 C 11.183594 -14.828125 12.589844 -13.933594 12.589844 -11.058594 L 12.589844 -10.832031 C 11.441406 -10.226562 8.882812 -9.90625 6.902344 -9.617188 C 3.035156 -9.011719 1.054688 -7.667969 1.054688 -4.730469 C 1.054688 -1.4375 3.386719 0.222656 6.488281 0.222656 C 10.546875 0.222656 12.367188 -2.523438 12.816406 -3.417969 L 12.816406 -2.238281 C 12.816406 -0.511719 13.742188 0.128906 15.308594 0.128906 C 15.753906 0.128906 16.011719 0.0976562 16.363281 -0.0625 L 16.363281 -1.628906 C 15.46875 -1.597656 15.148438 -1.980469 15.148438 -2.875 Z M 12.589844 -5.304688 C 12.175781 -4.441406 10.480469 -1.695312 7.0625 -1.695312 C 4.859375 -1.695312 3.609375 -2.941406 3.609375 -4.792969 C 3.609375 -6.550781 4.507812 -7.511719 7.222656 -7.957031 C 9.425781 -8.339844 11.632812 -8.691406 12.589844 -9.203125 Z M 12.589844 -5.304688 "/></g></g></g><g fill="#000000" fill-opacity="1"><g transform="translate(705.335374, 303.249885)"><g><path d="M 13.964844 -16.648438 L 13.964844 -13.519531 C 12.941406 -15.53125 10.867188 -16.777344 8.371094 -16.777344 C 4.890625 -16.777344 1.054688 -14.1875 1.054688 -8.308594 C 1.054688 -2.398438 4.859375 0.191406 8.40625 0.191406 C 11.25 0.191406 13.132812 -1.4375 13.964844 -3.355469 L 13.964844 -0.0976562 C 13.964844 3.546875 11.921875 4.890625 8.660156 4.890625 C 6.328125 4.890625 4.632812 4.027344 3.675781 2.78125 L 2.011719 3.835938 C 3.132812 5.816406 5.753906 7.03125 8.882812 7.03125 C 12.273438 7.03125 16.523438 5.6875 16.523438 -0.0976562 L 16.523438 -16.648438 Z M 8.851562 -1.949219 C 6.070312 -1.949219 3.578125 -3.898438 3.578125 -8.308594 C 3.578125 -12.71875 6.070312 -14.667969 8.851562 -14.667969 C 11.601562 -14.667969 14.09375 -12.75 14.09375 -8.308594 C 14.09375 -3.996094 11.601562 -1.949219 8.851562 -1.949219 Z M 8.851562 -1.949219 "/></g></g></g><g fill="#000000" fill-opacity="1"><g transform="translate(723.676276, 303.249885)"><g><path d="M 16.203125 -8.179688 C 16.203125 -14.125 12.78125 -16.777344 8.789062 -16.777344 C 4.859375 -16.777344 1.054688 -14.125 1.054688 -8.277344 C 1.054688 -2.460938 4.699219 0.222656 8.820312 0.222656 C 12.144531 0.222656 14.316406 -0.957031 15.628906 -3.707031 L 13.261719 -3.707031 C 12.273438 -2.300781 11.023438 -1.757812 8.949219 -1.757812 C 5.945312 -1.757812 3.835938 -3.453125 3.546875 -7.382812 L 16.171875 -7.382812 C 16.203125 -7.667969 16.203125 -7.925781 16.203125 -8.179688 Z M 3.546875 -9.140625 C 3.835938 -12.976562 6.007812 -14.796875 8.789062 -14.796875 C 11.695312 -14.796875 13.675781 -12.847656 13.742188 -9.140625 Z M 3.546875 -9.140625 "/></g></g></g><g fill="#000000" fill-opacity="1"><g transform="translate(740.898816, 303.249885)"><g/></g></g><g fill="#000000" fill-opacity="1"><g transform="translate(749.621939, 303.249885)"><g><path d="M 13.773438 -16.617188 L 8.53125 -2.941406 L 3.386719 -16.617188 L 0.734375 -16.617188 L 7.0625 -0.800781 C 7.316406 -0.160156 7.285156 0.191406 6.933594 1.117188 C 6.199219 2.972656 4.921875 4.121094 2.523438 3.804688 L 2.523438 6.039062 C 5.6875 6.421875 7.667969 5.082031 9.234375 1.214844 L 16.394531 -16.617188 Z M 13.773438 -16.617188 "/></g></g></g><g fill="#000000" fill-opacity="1"><g transform="translate(766.716688, 303.249885)"><g><path d="M 8.757812 -16.777344 C 5.113281 -16.777344 1.054688 -14.15625 1.054688 -8.308594 C 1.054688 -2.398438 5.113281 0.222656 8.757812 0.222656 C 12.398438 0.222656 16.488281 -2.398438 16.488281 -8.308594 C 16.488281 -14.15625 12.398438 -16.777344 8.757812 -16.777344 Z M 13.996094 -8.308594 C 13.996094 -3.898438 11.441406 -1.917969 8.757812 -1.917969 C 6.070312 -1.917969 3.515625 -3.898438 3.515625 -8.308594 C 3.515625 -12.6875 6.070312 -14.636719 8.757812 -14.636719 C 11.441406 -14.636719 13.996094 -12.6875 13.996094 -8.308594 Z M 13.996094 -8.308594 "/></g></g></g><g fill="#000000" fill-opacity="1"><g transform="translate(784.226805, 303.249885)"><g><path d="M 13.519531 -16.617188 L 13.519531 -6.296875 C 13.167969 -4.730469 11.570312 -1.949219 8.4375 -1.949219 C 5.910156 -1.949219 4.25 -3.132812 4.25 -6.613281 L 4.25 -16.617188 L 1.695312 -16.617188 L 1.695312 -6.550781 C 1.695312 -1.46875 4.28125 0.222656 7.605469 0.222656 C 11.183594 0.222656 13.167969 -2.652344 13.519531 -3.867188 L 13.519531 0 L 16.074219 0 L 16.074219 -16.617188 Z M 13.519531 -16.617188 "/></g></g></g><g fill="#000000" fill-opacity="1"><g transform="translate(802.120367, 303.249885)"><g><path d="M 1.277344 -22.371094 L 3.707031 -22.371094 L 3.707031 -14.574219 L 1.277344 -14.574219 Z M 1.277344 -22.371094 "/></g></g></g><g fill="#000000" fill-opacity="1"><g transform="translate(807.105005, 303.249885)"><g><path d="M 10.097656 -16.777344 C 6.902344 -16.777344 4.953125 -14.828125 4.410156 -12.589844 L 4.410156 -16.617188 L 1.855469 -16.617188 L 1.855469 0 L 4.410156 0 L 4.410156 -9.714844 C 4.953125 -12.625 6.902344 -14.476562 10.289062 -14.476562 C 10.515625 -14.476562 10.800781 -14.476562 11.28125 -14.445312 L 11.28125 -16.714844 C 10.800781 -16.777344 10.449219 -16.777344 10.097656 -16.777344 Z M 10.097656 -16.777344 "/></g></g></g><g fill="#000000" fill-opacity="1"><g transform="translate(819.247064, 303.249885)"><g><path d="M 16.203125 -8.179688 C 16.203125 -14.125 12.78125 -16.777344 8.789062 -16.777344 C 4.859375 -16.777344 1.054688 -14.125 1.054688 -8.277344 C 1.054688 -2.460938 4.699219 0.222656 8.820312 0.222656 C 12.144531 0.222656 14.316406 -0.957031 15.628906 -3.707031 L 13.261719 -3.707031 C 12.273438 -2.300781 11.023438 -1.757812 8.949219 -1.757812 C 5.945312 -1.757812 3.835938 -3.453125 3.546875 -7.382812 L 16.171875 -7.382812 C 16.203125 -7.667969 16.203125 -7.925781 16.203125 -8.179688 Z M 3.546875 -9.140625 C 3.835938 -12.976562 6.007812 -14.796875 8.789062 -14.796875 C 11.695312 -14.796875 13.675781 -12.847656 13.742188 -9.140625 Z M 3.546875 -9.140625 "/></g></g></g><g fill="#000000" fill-opacity="1"><g transform="translate(522.30977, 347.202049)"><g><path d="M 1.855469 -22.5625 L 1.855469 0 L 4.410156 0 L 4.410156 -22.5625 Z M 1.855469 -22.5625 "/></g></g></g><g fill="#000000" fill-opacity="1"><g transform="translate(528.540562, 347.202049)"><g><path d="M 8.757812 -16.777344 C 5.113281 -16.777344 1.054688 -14.15625 1.054688 -8.308594 C 1.054688 -2.398438 5.113281 0.222656 8.757812 0.222656 C 12.398438 0.222656 16.488281 -2.398438 16.488281 -8.308594 C 16.488281 -14.15625 12.398438 -16.777344 8.757812 -16.777344 Z M 13.996094 -8.308594 C 13.996094 -3.898438 11.441406 -1.917969 8.757812 -1.917969 C 6.070312 -1.917969 3.515625 -3.898438 3.515625 -8.308594 C 3.515625 -12.6875 6.070312 -14.636719 8.757812 -14.636719 C 11.441406 -14.636719 13.996094 -12.6875 13.996094 -8.308594 Z M 13.996094 -8.308594 "/></g></g></g><g fill="#000000" fill-opacity="1"><g transform="translate(546.050692, 347.202049)"><g><path d="M 8.757812 -16.777344 C 5.113281 -16.777344 1.054688 -14.15625 1.054688 -8.308594 C 1.054688 -2.398438 5.113281 0.222656 8.757812 0.222656 C 12.398438 0.222656 16.488281 -2.398438 16.488281 -8.308594 C 16.488281 -14.15625 12.398438 -16.777344 8.757812 -16.777344 Z M 13.996094 -8.308594 C 13.996094 -3.898438 11.441406 -1.917969 8.757812 -1.917969 C 6.070312 -1.917969 3.515625 -3.898438 3.515625 -8.308594 C 3.515625 -12.6875 6.070312 -14.636719 8.757812 -14.636719 C 11.441406 -14.636719 13.996094 -12.6875 13.996094 -8.308594 Z M 13.996094 -8.308594 "/></g></g></g><g fill="#000000" fill-opacity="1"><g transform="translate(563.560821, 347.202049)"><g><path d="M 13.902344 0 L 16.808594 0 L 8.789062 -9.425781 L 15.785156 -16.617188 L 12.78125 -16.617188 L 4.410156 -7.925781 L 4.410156 -22.5625 L 1.855469 -22.5625 L 1.855469 0 L 4.410156 0 L 4.410156 -4.921875 L 7.160156 -7.765625 Z M 13.902344 0 "/></g></g></g><g fill="#000000" fill-opacity="1"><g transform="translate(580.783373, 347.202049)"><g><path d="M 1.855469 -22.65625 L 1.855469 -20.292969 L 4.410156 -20.292969 L 4.410156 -22.65625 Z M 1.855469 -16.617188 L 1.855469 0 L 4.410156 0 L 4.410156 -16.617188 Z M 1.855469 -16.617188 "/></g></g></g><g fill="#000000" fill-opacity="1"><g transform="translate(587.014164, 347.202049)"><g><path d="M 10.320312 -16.777344 C 6.742188 -16.777344 4.761719 -13.964844 4.410156 -12.75 L 4.410156 -16.617188 L 1.855469 -16.617188 L 1.855469 0 L 4.410156 0 L 4.410156 -10.289062 C 4.730469 -11.855469 6.328125 -14.605469 9.492188 -14.605469 C 12.015625 -14.605469 13.675781 -13.453125 13.675781 -9.96875 L 13.675781 0 L 16.234375 0 L 16.234375 -10.066406 C 16.234375 -15.117188 13.644531 -16.777344 10.320312 -16.777344 Z M 10.320312 -16.777344 "/></g></g></g><g fill="#000000" fill-opacity="1"><g transform="translate(605.067489, 347.202049)"><g><path d="M 13.964844 -16.648438 L 13.964844 -13.519531 C 12.941406 -15.53125 10.867188 -16.777344 8.371094 -16.777344 C 4.890625 -16.777344 1.054688 -14.1875 1.054688 -8.308594 C 1.054688 -2.398438 4.859375 0.191406 8.40625 0.191406 C 11.25 0.191406 13.132812 -1.4375 13.964844 -3.355469 L 13.964844 -0.0976562 C 13.964844 3.546875 11.921875 4.890625 8.660156 4.890625 C 6.328125 4.890625 4.632812 4.027344 3.675781 2.78125 L 2.011719 3.835938 C 3.132812 5.816406 5.753906 7.03125 8.882812 7.03125 C 12.273438 7.03125 16.523438 5.6875 16.523438 -0.0976562 L 16.523438 -16.648438 Z M 8.851562 -1.949219 C 6.070312 -1.949219 3.578125 -3.898438 3.578125 -8.308594 C 3.578125 -12.71875 6.070312 -14.667969 8.851562 -14.667969 C 11.601562 -14.667969 14.09375 -12.75 14.09375 -8.308594 C 14.09375 -3.996094 11.601562 -1.949219 8.851562 -1.949219 Z M 8.851562 -1.949219 "/></g></g></g><g fill="#000000" fill-opacity="1"><g transform="translate(623.408391, 347.202049)"><g/></g></g><g fill="#000000" fill-opacity="1"><g transform="translate(632.131502, 347.202049)"><g><path d="M 7.828125 -20.835938 C 8.5 -20.835938 9.269531 -20.742188 9.746094 -20.613281 L 9.746094 -22.53125 C 9.140625 -22.753906 8.148438 -22.882812 7.316406 -22.882812 C 5.210938 -22.882812 2.941406 -22.273438 2.941406 -18.34375 L 2.941406 -16.617188 L 0.640625 -16.617188 L 0.640625 -14.574219 L 2.941406 -14.574219 L 2.941406 0 L 5.496094 0 L 5.496094 -14.574219 L 9.554688 -14.574219 L 9.554688 -16.617188 L 5.496094 -16.617188 L 5.496094 -18.3125 C 5.496094 -20.195312 6.230469 -20.835938 7.828125 -20.835938 Z M 7.828125 -20.835938 "/></g></g></g><g fill="#000000" fill-opacity="1"><g transform="translate(642.516159, 347.202049)"><g><path d="M 8.757812 -16.777344 C 5.113281 -16.777344 1.054688 -14.15625 1.054688 -8.308594 C 1.054688 -2.398438 5.113281 0.222656 8.757812 0.222656 C 12.398438 0.222656 16.488281 -2.398438 16.488281 -8.308594 C 16.488281 -14.15625 12.398438 -16.777344 8.757812 -16.777344 Z M 13.996094 -8.308594 C 13.996094 -3.898438 11.441406 -1.917969 8.757812 -1.917969 C 6.070312 -1.917969 3.515625 -3.898438 3.515625 -8.308594 C 3.515625 -12.6875 6.070312 -14.636719 8.757812 -14.636719 C 11.441406 -14.636719 13.996094 -12.6875 13.996094 -8.308594 Z M 13.996094 -8.308594 "/></g></g></g><g fill="#000000" fill-opacity="1"><g transform="translate(660.026289, 347.202049)"><g><path d="M 10.097656 -16.777344 C 6.902344 -16.777344 4.953125 -14.828125 4.410156 -12.589844 L 4.410156 -16.617188 L 1.855469 -16.617188 L 1.855469 0 L 4.410156 0 L 4.410156 -9.714844 C 4.953125 -12.625 6.902344 -14.476562 10.289062 -14.476562 C 10.515625 -14.476562 10.800781 -14.476562 11.28125 -14.445312 L 11.28125 -16.714844 C 10.800781 -16.777344 10.449219 -16.777344 10.097656 -16.777344 Z M 10.097656 -16.777344 "/></g></g></g><g fill="#000000" fill-opacity="1"><g transform="translate(672.168347, 347.202049)"><g/></g></g><g fill="#000000" fill-opacity="1"><g transform="translate(680.891458, 347.202049)"><g><path d="M 8.40625 -16.777344 C 4.890625 -16.777344 1.054688 -14.1875 1.054688 -8.308594 C 1.054688 -2.363281 4.890625 0.222656 8.46875 0.222656 C 11.28125 0.222656 13.167969 -1.4375 13.996094 -3.355469 L 13.996094 0 L 16.554688 0 L 16.554688 -22.5625 L 13.996094 -22.5625 L 13.996094 -13.519531 C 13.007812 -15.53125 10.929688 -16.777344 8.40625 -16.777344 Z M 8.851562 -1.917969 C 6.070312 -1.917969 3.546875 -3.898438 3.546875 -8.308594 C 3.546875 -12.71875 6.070312 -14.636719 8.851562 -14.636719 C 11.601562 -14.636719 14.125 -12.75 14.125 -8.308594 C 14.125 -3.996094 11.601562 -1.917969 8.851562 -1.917969 Z M 8.851562 -1.917969 "/></g></g></g><g fill="#000000" fill-opacity="1"><g transform="translate(699.296269, 347.202049)"><g><path d="M 8.757812 -16.777344 C 5.113281 -16.777344 1.054688 -14.15625 1.054688 -8.308594 C 1.054688 -2.398438 5.113281 0.222656 8.757812 0.222656 C 12.398438 0.222656 16.488281 -2.398438 16.488281 -8.308594 C 16.488281 -14.15625 12.398438 -16.777344 8.757812 -16.777344 Z M 13.996094 -8.308594 C 13.996094 -3.898438 11.441406 -1.917969 8.757812 -1.917969 C 6.070312 -1.917969 3.515625 -3.898438 3.515625 -8.308594 C 3.515625 -12.6875 6.070312 -14.636719 8.757812 -14.636719 C 11.441406 -14.636719 13.996094 -12.6875 13.996094 -8.308594 Z M 13.996094 -8.308594 "/></g></g></g><g fill="#000000" fill-opacity="1"><g transform="translate(716.806398, 347.202049)"><g><path d="M 16.203125 -8.179688 C 16.203125 -14.125 12.78125 -16.777344 8.789062 -16.777344 C 4.859375 -16.777344 1.054688 -14.125 1.054688 -8.277344 C 1.054688 -2.460938 4.699219 0.222656 8.820312 0.222656 C 12.144531 0.222656 14.316406 -0.957031 15.628906 -3.707031 L 13.261719 -3.707031 C 12.273438 -2.300781 11.023438 -1.757812 8.949219 -1.757812 C 5.945312 -1.757812 3.835938 -3.453125 3.546875 -7.382812 L 16.171875 -7.382812 C 16.203125 -7.667969 16.203125 -7.925781 16.203125 -8.179688 Z M 3.546875 -9.140625 C 3.835938 -12.976562 6.007812 -14.796875 8.789062 -14.796875 C 11.695312 -14.796875 13.675781 -12.847656 13.742188 -9.140625 Z M 3.546875 -9.140625 "/></g></g></g><g fill="#000000" fill-opacity="1"><g transform="translate(734.02895, 347.202049)"><g><path d="M 11.726562 -12.367188 L 14.09375 -12.367188 C 13.421875 -15.242188 11.089844 -16.777344 7.636719 -16.777344 C 3.898438 -16.777344 1.46875 -15.050781 1.46875 -12.238281 C 1.46875 -9.90625 2.972656 -8.566406 6.039062 -7.828125 L 8.949219 -7.160156 C 10.800781 -6.710938 11.886719 -6.261719 11.886719 -4.601562 C 11.886719 -2.683594 10.066406 -1.789062 7.796875 -1.789062 C 5.625 -1.789062 3.769531 -2.554688 3.292969 -4.859375 L 0.894531 -4.859375 C 1.308594 -1.34375 4.089844 0.222656 7.765625 0.222656 C 11.28125 0.222656 14.445312 -1.183594 14.445312 -4.570312 C 14.445312 -7.636719 12.527344 -8.277344 9.460938 -8.980469 L 6.773438 -9.617188 C 4.730469 -10.097656 3.898438 -10.832031 3.898438 -12.175781 C 3.898438 -13.675781 5.242188 -14.796875 7.636719 -14.796875 C 9.714844 -14.796875 11.152344 -14.09375 11.726562 -12.367188 Z M 11.726562 -12.367188 "/></g></g></g><g fill="#000000" fill-opacity="1"><g transform="translate(749.366309, 347.202049)"><g><path d="M 10.320312 -16.777344 C 6.742188 -16.777344 4.761719 -13.964844 4.410156 -12.75 L 4.410156 -16.617188 L 1.855469 -16.617188 L 1.855469 0 L 4.410156 0 L 4.410156 -10.289062 C 4.730469 -11.855469 6.328125 -14.605469 9.492188 -14.605469 C 12.015625 -14.605469 13.675781 -13.453125 13.675781 -9.96875 L 13.675781 0 L 16.234375 0 L 16.234375 -10.066406 C 16.234375 -15.117188 13.644531 -16.777344 10.320312 -16.777344 Z M 10.320312 -16.777344 "/></g></g></g><g fill="#000000" fill-opacity="1"><g transform="translate(767.419634, 347.202049)"><g><path d="M 1.277344 -22.371094 L 3.707031 -22.371094 L 3.707031 -14.574219 L 1.277344 -14.574219 Z M 1.277344 -22.371094 "/></g></g></g><g fill="#000000" fill-opacity="1"><g transform="translate(772.404273, 347.202049)"><g><path d="M 7.351562 -1.886719 C 6.105469 -1.886719 5.6875 -2.398438 5.6875 -3.292969 L 5.6875 -14.574219 L 8.917969 -14.574219 L 8.917969 -16.617188 L 5.6875 -16.617188 L 5.6875 -20.773438 L 3.132812 -20.773438 L 3.132812 -16.617188 L 0.574219 -16.617188 L 0.574219 -14.574219 L 3.132812 -14.574219 L 3.132812 -3.035156 C 3.132812 -0.449219 4.664062 0.191406 6.582031 0.191406 C 7.542969 0.191406 8.46875 0.0625 9.171875 -0.191406 L 9.171875 -2.140625 C 8.46875 -1.949219 7.925781 -1.886719 7.351562 -1.886719 Z M 7.351562 -1.886719 "/></g></g></g><g fill="#000000" fill-opacity="1"><g transform="translate(782.597232, 347.202049)"><g/></g></g><g fill="#000000" fill-opacity="1"><g transform="translate(791.320355, 347.202049)"><g><path d="M 16.203125 -8.179688 C 16.203125 -14.125 12.78125 -16.777344 8.789062 -16.777344 C 4.859375 -16.777344 1.054688 -14.125 1.054688 -8.277344 C 1.054688 -2.460938 4.699219 0.222656 8.820312 0.222656 C 12.144531 0.222656 14.316406 -0.957031 15.628906 -3.707031 L 13.261719 -3.707031 C 12.273438 -2.300781 11.023438 -1.757812 8.949219 -1.757812 C 5.945312 -1.757812 3.835938 -3.453125 3.546875 -7.382812 L 16.171875 -7.382812 C 16.203125 -7.667969 16.203125 -7.925781 16.203125 -8.179688 Z M 3.546875 -9.140625 C 3.835938 -12.976562 6.007812 -14.796875 8.789062 -14.796875 C 11.695312 -14.796875 13.675781 -12.847656 13.742188 -9.140625 Z M 3.546875 -9.140625 "/></g></g></g><g fill="#000000" fill-opacity="1"><g transform="translate(808.542919, 347.202049)"><g><path d="M 15.914062 0 L 9.8125 -8.566406 L 15.5625 -16.617188 L 12.71875 -16.617188 L 8.40625 -10.480469 L 4.058594 -16.617188 L 1.214844 -16.617188 L 7 -8.566406 L 0.894531 0 L 3.738281 0 L 8.40625 -6.679688 L 13.039062 0 Z M 15.914062 0 "/></g></g></g><g fill="#000000" fill-opacity="1"><g transform="translate(825.318118, 347.202049)"><g><path d="M 1.855469 -22.65625 L 1.855469 -20.292969 L 4.410156 -20.292969 L 4.410156 -22.65625 Z M 1.855469 -16.617188 L 1.855469 0 L 4.410156 0 L 4.410156 -16.617188 Z M 1.855469 -16.617188 "/></g></g></g><g fill="#000000" fill-opacity="1"><g transform="translate(831.54891, 347.202049)"><g><path d="M 11.726562 -12.367188 L 14.09375 -12.367188 C 13.421875 -15.242188 11.089844 -16.777344 7.636719 -16.777344 C 3.898438 -16.777344 1.46875 -15.050781 1.46875 -12.238281 C 1.46875 -9.90625 2.972656 -8.566406 6.039062 -7.828125 L 8.949219 -7.160156 C 10.800781 -6.710938 11.886719 -6.261719 11.886719 -4.601562 C 11.886719 -2.683594 10.066406 -1.789062 7.796875 -1.789062 C 5.625 -1.789062 3.769531 -2.554688 3.292969 -4.859375 L 0.894531 -4.859375 C 1.308594 -1.34375 4.089844 0.222656 7.765625 0.222656 C 11.28125 0.222656 14.445312 -1.183594 14.445312 -4.570312 C 14.445312 -7.636719 12.527344 -8.277344 9.460938 -8.980469 L 6.773438 -9.617188 C 4.730469 -10.097656 3.898438 -10.832031 3.898438 -12.175781 C 3.898438 -13.675781 5.242188 -14.796875 7.636719 -14.796875 C 9.714844 -14.796875 11.152344 -14.09375 11.726562 -12.367188 Z M 11.726562 -12.367188 "/></g></g></g><g fill="#000000" fill-opacity="1"><g transform="translate(846.886245, 347.202049)"><g><path d="M 7.351562 -1.886719 C 6.105469 -1.886719 5.6875 -2.398438 5.6875 -3.292969 L 5.6875 -14.574219 L 8.917969 -14.574219 L 8.917969 -16.617188 L 5.6875 -16.617188 L 5.6875 -20.773438 L 3.132812 -20.773438 L 3.132812 -16.617188 L 0.574219 -16.617188 L 0.574219 -14.574219 L 3.132812 -14.574219 L 3.132812 -3.035156 C 3.132812 -0.449219 4.664062 0.191406 6.582031 0.191406 C 7.542969 0.191406 8.46875 0.0625 9.171875 -0.191406 L 9.171875 -2.140625 C 8.46875 -1.949219 7.925781 -1.886719 7.351562 -1.886719 Z M 7.351562 -1.886719 "/></g></g></g><g fill="#000000" fill-opacity="1"><g transform="translate(701.695804, 397.605465)"><g><path d="M 4.496094 -0.832031 C 2.835938 -0.832031 1.648438 -2.042969 1.648438 -4.472656 C 1.648438 -6.914062 2.835938 -8.125 4.496094 -8.125 C 5.761719 -8.125 6.503906 -7.578125 6.835938 -6.683594 L 7.921875 -6.683594 C 7.589844 -8.214844 6.222656 -9.058594 4.484375 -9.058594 C 2.222656 -9.058594 0.550781 -7.539062 0.550781 -4.472656 C 0.550781 -1.417969 2.222656 0.113281 4.484375 0.113281 C 6.234375 0.113281 7.617188 -0.742188 7.949219 -2.273438 L 6.875 -2.273438 C 6.53125 -1.378906 5.777344 -0.832031 4.496094 -0.832031 Z M 4.496094 -0.832031 "/></g></g></g><g fill="#000000" fill-opacity="1"><g transform="translate(711.200466, 397.605465)"><g><path d="M 4.574219 -9.058594 C 2.210938 -9.058594 0.550781 -7.5 0.550781 -4.472656 C 0.550781 -1.457031 2.210938 0.113281 4.574219 0.113281 C 6.925781 0.113281 8.601562 -1.457031 8.601562 -4.472656 C 8.601562 -7.5 6.925781 -9.058594 4.574219 -9.058594 Z M 4.574219 -0.832031 C 2.824219 -0.832031 1.648438 -2.03125 1.648438 -4.472656 C 1.648438 -6.925781 2.824219 -8.125 4.574219 -8.125 C 6.324219 -8.125 7.488281 -6.925781 7.488281 -4.472656 C 7.488281 -2.03125 6.324219 -0.832031 4.574219 -0.832031 Z M 4.574219 -0.832031 "/></g></g></g><g fill="#000000" fill-opacity="1"><g transform="translate(721.509856, 397.605465)"><g><path d="M 7.730469 -8.945312 L 6.65625 -8.945312 L 6.65625 -1.636719 L 6.632812 -1.636719 L 1.902344 -8.945312 L 0.742188 -8.945312 L 0.742188 0 L 1.800781 0 L 1.800781 -7.269531 L 1.839844 -7.269531 L 6.53125 0 L 7.730469 0 Z M 7.730469 -8.945312 "/></g></g></g><g fill="#000000" fill-opacity="1"><g transform="translate(731.142246, 397.605465)"><g><path d="M 7.054688 -8.945312 L 0.359375 -8.945312 L 0.359375 -8.011719 L 3.167969 -8.011719 L 3.167969 0 L 4.242188 0 L 4.242188 -8.011719 L 7.054688 -8.011719 Z M 7.054688 -8.945312 "/></g></g></g><g fill="#000000" fill-opacity="1"><g transform="translate(739.727208, 397.605465)"><g><path d="M 7.257812 0 L 8.40625 0 L 4.84375 -8.945312 L 3.910156 -8.945312 L 0.359375 0 L 1.507812 0 L 2.375 -2.289062 L 6.390625 -2.289062 Z M 2.683594 -3.105469 L 4.382812 -7.566406 L 6.082031 -3.105469 Z M 2.683594 -3.105469 "/></g></g></g><g fill="#000000" fill-opacity="1"><g transform="translate(749.653398, 397.605465)"><g><path d="M 4.496094 -0.832031 C 2.835938 -0.832031 1.648438 -2.042969 1.648438 -4.472656 C 1.648438 -6.914062 2.835938 -8.125 4.496094 -8.125 C 5.761719 -8.125 6.503906 -7.578125 6.835938 -6.683594 L 7.921875 -6.683594 C 7.589844 -8.214844 6.222656 -9.058594 4.484375 -9.058594 C 2.222656 -9.058594 0.550781 -7.539062 0.550781 -4.472656 C 0.550781 -1.417969 2.222656 0.113281 4.484375 0.113281 C 6.234375 0.113281 7.617188 -0.742188 7.949219 -2.273438 L 6.875 -2.273438 C 6.53125 -1.378906 5.777344 -0.832031 4.496094 -0.832031 Z M 4.496094 -0.832031 "/></g></g></g><g fill="#000000" fill-opacity="1"><g transform="translate(759.158062, 397.605465)"><g><path d="M 7.054688 -8.945312 L 0.359375 -8.945312 L 0.359375 -8.011719 L 3.167969 -8.011719 L 3.167969 0 L 4.242188 0 L 4.242188 -8.011719 L 7.054688 -8.011719 Z M 7.054688 -8.945312 "/></g></g></g><g fill="#000000" fill-opacity="1"><g transform="translate(522.924578, 257.099423)"><g><path d="M 64.601562 -18.785156 L 64.601562 -32.1875 L 55.4375 -32.1875 L 55.4375 -80.179688 L 38.714844 -80.179688 L 4.007812 -32.1875 L 4.007812 -18.785156 L 38.714844 -18.785156 L 38.714844 0 L 55.4375 0 L 55.4375 -18.785156 Z M 38.714844 -32.1875 L 18.554688 -32.1875 L 38.714844 -60.019531 Z M 38.714844 -32.1875 "/></g></g></g><g fill="#000000" fill-opacity="1"><g transform="translate(577.559151, 257.099423)"><g><path d="M 36.652344 -81.207031 C 21.074219 -81.207031 4.238281 -70.441406 4.238281 -40.089844 C 4.238281 -9.621094 21.074219 1.03125 36.652344 1.03125 C 52.460938 1.03125 69.066406 -9.621094 69.066406 -40.089844 C 69.066406 -70.441406 52.460938 -81.207031 36.652344 -81.207031 Z M 52.34375 -40.089844 C 52.34375 -26.113281 48.910156 -13.285156 36.652344 -13.285156 C 24.398438 -13.285156 20.960938 -26.113281 20.960938 -40.089844 C 20.960938 -53.949219 24.398438 -66.890625 36.652344 -66.890625 C 48.910156 -66.890625 52.34375 -53.949219 52.34375 -40.089844 Z M 52.34375 -40.089844 "/></g></g></g><g fill="#000000" fill-opacity="1"><g transform="translate(636.889829, 257.099423)"><g><path d="M 64.601562 -18.785156 L 64.601562 -32.1875 L 55.4375 -32.1875 L 55.4375 -80.179688 L 38.714844 -80.179688 L 4.007812 -32.1875 L 4.007812 -18.785156 L 38.714844 -18.785156 L 38.714844 0 L 55.4375 0 L 55.4375 -18.785156 Z M 38.714844 -32.1875 L 18.554688 -32.1875 L 38.714844 -60.019531 Z M 38.714844 -32.1875 "/></g></g></g><g fill="#0e133f" fill-opacity="1"><g transform="translate(71.320493, 112.103811)"><g><path d="M 23.582031 0 L 30.796875 0 L 18.917969 -30.796875 L 12.890625 -30.796875 L 0.96875 0 L 8.226562 0 L 10.207031 -5.761719 L 21.601562 -5.761719 Z M 11.878906 -10.691406 L 15.882812 -22.480469 L 19.929688 -10.691406 Z M 11.878906 -10.691406 "/></g></g></g><g fill="#0e133f" fill-opacity="1"><g transform="translate(99.738852, 112.103811)"><g><path d="M 16.058594 -23.097656 C 11.835938 -23.097656 9.371094 -19.929688 8.710938 -18.347656 L 8.710938 -22.878906 L 2.289062 -22.878906 L 2.289062 0 L 8.710938 0 L 8.710938 -13.507812 C 8.929688 -14.957031 10.472656 -17.773438 13.683594 -17.773438 C 15.96875 -17.773438 17.773438 -16.585938 17.773438 -13.417969 L 17.773438 0 L 24.195312 0 L 24.195312 -13.769531 C 24.195312 -20.722656 20.765625 -23.097656 16.058594 -23.097656 Z M 16.058594 -23.097656 "/></g></g></g><g fill="#0e133f" fill-opacity="1"><g transform="translate(122.878144, 112.103811)"><g><path d="M 15.003906 -15.792969 L 20.765625 -15.792969 C 20.019531 -20.148438 17.113281 -23.097656 11.042969 -23.097656 C 5.191406 -23.097656 1.714844 -20.546875 1.714844 -16.277344 C 1.714844 -13.15625 3.519531 -10.867188 8.710938 -9.722656 L 12.40625 -8.929688 C 14.121094 -8.578125 14.828125 -8.050781 14.828125 -6.863281 C 14.828125 -5.457031 13.683594 -4.445312 11.128906 -4.445312 C 8.753906 -4.445312 7.347656 -5.367188 6.863281 -7.304688 L 0.96875 -7.304688 C 1.628906 -2.242188 5.234375 0.308594 11.085938 0.308594 C 16.894531 0.308594 21.25 -1.9375 21.25 -6.773438 C 21.25 -11.527344 18.300781 -12.097656 14.210938 -13.023438 L 10.117188 -13.945312 C 8.535156 -14.296875 7.699219 -14.957031 7.699219 -16.101562 C 7.699219 -17.554688 9.0625 -18.347656 11.085938 -18.347656 C 13.199219 -18.347656 14.472656 -17.6875 15.003906 -15.792969 Z M 15.003906 -15.792969 "/></g></g></g><g fill="#0e133f" fill-opacity="1"><g transform="translate(141.750194, 112.103811)"><g><path d="M 16.058594 -23.097656 C 11.835938 -23.097656 9.371094 -19.929688 8.710938 -18.347656 L 8.710938 -31.058594 L 2.289062 -31.058594 L 2.289062 0 L 8.710938 0 L 8.710938 -13.507812 C 8.929688 -14.957031 10.472656 -17.773438 13.683594 -17.773438 C 15.96875 -17.773438 17.773438 -16.585938 17.773438 -13.417969 L 17.773438 0 L 24.195312 0 L 24.195312 -13.769531 C 24.195312 -20.722656 20.765625 -23.097656 16.058594 -23.097656 Z M 16.058594 -23.097656 "/></g></g></g><g fill="#0e133f" fill-opacity="1"><g transform="translate(164.889483, 112.103811)"><g><path d="M 17.554688 -22.878906 L 17.554688 -9.328125 C 17.335938 -7.875 15.839844 -5.015625 12.625 -5.015625 C 10.292969 -5.015625 8.492188 -6.246094 8.492188 -9.414062 L 8.492188 -22.878906 L 2.066406 -22.878906 L 2.066406 -9.0625 C 2.066406 -2.113281 5.542969 0.308594 10.207031 0.308594 C 14.472656 0.308594 16.894531 -2.902344 17.554688 -4.488281 L 17.554688 0 L 23.976562 0 L 23.976562 -22.878906 Z M 17.554688 -22.878906 "/></g></g></g><g fill="#0e133f" fill-opacity="1"><g transform="translate(187.808822, 112.103811)"><g><path d="M 21.46875 -16.9375 C 23.492188 -17.863281 25.296875 -19.972656 25.296875 -22.832031 C 25.296875 -27.585938 21.910156 -30.796875 15.003906 -30.796875 L 2.289062 -30.796875 L 2.289062 0 L 15.484375 0 C 23.539062 0 27.320312 -3.476562 27.320312 -9.152344 C 27.320312 -12.625 25.078125 -15.839844 21.46875 -16.9375 Z M 9.019531 -25.253906 L 15.089844 -25.253906 C 16.675781 -25.253906 18.257812 -24.375 18.257812 -22.171875 C 18.257812 -20.371094 17.113281 -18.785156 14.914062 -18.785156 L 9.019531 -18.785156 Z M 15.265625 -5.542969 L 9.019531 -5.542969 L 9.019531 -13.683594 L 15.484375 -13.683594 C 19.136719 -13.683594 20.105469 -11.351562 20.105469 -9.457031 C 20.105469 -7.390625 18.828125 -5.542969 15.265625 -5.542969 Z M 15.265625 -5.542969 "/></g></g></g><g fill="#0e133f" fill-opacity="1"><g transform="translate(213.631636, 112.103811)"><g><path d="M 2.289062 -31.191406 L 2.289062 -26.308594 L 8.710938 -26.308594 L 8.710938 -31.191406 Z M 2.289062 -22.878906 L 2.289062 0 L 8.710938 0 L 8.710938 -22.878906 Z M 2.289062 -22.878906 "/></g></g></g><g fill="#0e133f" fill-opacity="1"><g transform="translate(221.285684, 112.103811)"><g><path d="M 13.199219 -4.707031 C 11.351562 -4.707031 10.734375 -5.632812 10.734375 -7.039062 L 10.734375 -17.863281 L 15.355469 -17.863281 L 15.355469 -22.878906 L 10.734375 -22.878906 L 10.734375 -28.597656 L 4.3125 -28.597656 L 4.3125 -22.878906 L 0.527344 -22.878906 L 0.527344 -17.863281 L 4.3125 -17.863281 L 4.3125 -6.335938 C 4.3125 -0.835938 7.433594 0.265625 11.394531 0.265625 C 13.109375 0.265625 14.605469 0 15.574219 -0.394531 L 15.574219 -5.015625 C 14.605469 -4.796875 13.859375 -4.707031 13.199219 -4.707031 Z M 13.199219 -4.707031 "/></g></g></g><g fill="#0e133f" fill-opacity="1"><g transform="translate(234.702714, 112.103811)"><g><path d="M 23.40625 -10.601562 C 23.40625 -19.839844 18.171875 -23.097656 12.496094 -23.097656 C 7.214844 -23.097656 1.1875 -19.839844 1.1875 -11.308594 C 1.1875 -2.902344 7.257812 0.308594 12.449219 0.308594 C 17.992188 0.308594 21.46875 -1.9375 22.789062 -6.554688 L 17.203125 -6.554688 C 16.542969 -5.234375 15.222656 -4.445312 12.800781 -4.445312 C 9.679688 -4.445312 7.875 -5.894531 7.390625 -9.414062 L 23.363281 -9.414062 C 23.40625 -9.8125 23.40625 -10.164062 23.40625 -10.601562 Z M 7.433594 -13.375 C 7.917969 -16.71875 9.679688 -18.347656 12.496094 -18.347656 C 15.53125 -18.347656 17.203125 -16.367188 17.289062 -13.375 Z M 7.433594 -13.375 "/></g></g></g><g fill="#0e133f" fill-opacity="1"><g transform="translate(255.950341, 112.103811)"><g><path d="M 15.003906 -15.792969 L 20.765625 -15.792969 C 20.019531 -20.148438 17.113281 -23.097656 11.042969 -23.097656 C 5.191406 -23.097656 1.714844 -20.546875 1.714844 -16.277344 C 1.714844 -13.15625 3.519531 -10.867188 8.710938 -9.722656 L 12.40625 -8.929688 C 14.121094 -8.578125 14.828125 -8.050781 14.828125 -6.863281 C 14.828125 -5.457031 13.683594 -4.445312 11.128906 -4.445312 C 8.753906 -4.445312 7.347656 -5.367188 6.863281 -7.304688 L 0.96875 -7.304688 C 1.628906 -2.242188 5.234375 0.308594 11.085938 0.308594 C 16.894531 0.308594 21.25 -1.9375 21.25 -6.773438 C 21.25 -11.527344 18.300781 -12.097656 14.210938 -13.023438 L 10.117188 -13.945312 C 8.535156 -14.296875 7.699219 -14.957031 7.699219 -16.101562 C 7.699219 -17.554688 9.0625 -18.347656 11.085938 -18.347656 C 13.199219 -18.347656 14.472656 -17.6875 15.003906 -15.792969 Z M 15.003906 -15.792969 "/></g></g></g></svg>